<svg width="130" height="121" viewBox="0 0 130 121" fill="none" xmlns="http://www.w3.org/2000/svg">
<ellipse cx="68.1969" cy="61.5528" rx="51.1476" ry="50.5262" fill="#414F6F"/>
<path fill-rule="evenodd" clip-rule="evenodd" d="M61.0927 52.7813C61.0927 50.9202 61.8411 49.1352 63.1733 47.8192C64.5056 46.5031 66.3125 45.7638 68.1965 45.7638C70.0806 45.7638 71.8874 46.5031 73.2197 47.8192C74.5519 49.1352 75.3003 50.9202 75.3003 52.7813C75.3003 54.6425 74.5519 56.4274 73.2197 57.7435C71.8874 59.0595 70.0806 59.7989 68.1965 59.7989C66.3125 59.7989 64.5056 59.0595 63.1733 57.7435C61.8411 56.4274 61.0927 54.6425 61.0927 52.7813ZM61.0927 63.3076C58.7376 63.3076 56.479 64.2318 54.8137 65.8769C53.1484 67.5219 52.2129 69.7531 52.2129 72.0795C52.2129 73.4754 52.7742 74.8141 53.7734 75.8011C54.7726 76.7882 56.1277 77.3427 57.5408 77.3427H78.8522C80.2653 77.3427 81.6205 76.7882 82.6196 75.8011C83.6188 74.8141 84.1801 73.4754 84.1801 72.0795C84.1801 69.7531 83.2446 67.5219 81.5793 65.8769C79.914 64.2318 77.6554 63.3076 75.3003 63.3076H61.0927Z" fill="white"/>
<ellipse cx="18.1144" cy="14.1847" rx="8.52459" ry="8.42104" fill="#414F6F"/>
<ellipse cx="73.5245" cy="4.71052" rx="4.2623" ry="4.21052" fill="#414F6F"/>
<ellipse cx="117.213" cy="20.5001" rx="6.39344" ry="6.31578" fill="#414F6F"/>
<ellipse cx="126.803" cy="60.4999" rx="3.19672" ry="3.15789" fill="#414F6F"/>
<ellipse cx="117.213" cy="105.763" rx="4.2623" ry="4.21052" fill="#414F6F"/>
<ellipse cx="54.344" cy="118.395" rx="2.13115" ry="2.10526" fill="#414F6F"/>
<ellipse cx="13.8521" cy="93.1319" rx="4.2623" ry="4.21052" fill="#414F6F"/>
<ellipse cx="2.13115" cy="47.8688" rx="2.13115" ry="2.10526" fill="#414F6F"/>
<ellipse cx="90.574" cy="112.079" rx="2.13115" ry="2.10526" fill="#414F6F"/>
</svg>
