<svg width="37" height="37" viewBox="0 0 37 37" fill="none" xmlns="http://www.w3.org/2000/svg">
<path fill-rule="evenodd" clip-rule="evenodd" d="M10.5136 8.51785C10.5136 6.3998 11.355 4.3685 12.8527 2.87082C14.3504 1.37313 16.3817 0.531738 18.4998 0.531738C20.6178 0.531738 22.6491 1.37313 24.1468 2.87082C25.6445 4.3685 26.4859 6.3998 26.4859 8.51785C26.4859 10.6359 25.6445 12.6672 24.1468 14.1649C22.6491 15.6626 20.6178 16.504 18.4998 16.504C16.3817 16.504 14.3504 15.6626 12.8527 14.1649C11.355 12.6672 10.5136 10.6359 10.5136 8.51785ZM10.5136 20.497C7.86609 20.497 5.32696 21.5488 3.45485 23.4209C1.58275 25.293 0.531006 27.8321 0.531006 30.4797C0.531006 32.0682 1.16205 33.5917 2.28531 34.7149C3.40858 35.8382 4.93205 36.4692 6.52059 36.4692H30.4789C32.0675 36.4692 33.5909 35.8382 34.7142 34.7149C35.8375 33.5917 36.4685 32.0682 36.4685 30.4797C36.4685 27.8321 35.4168 25.293 33.5447 23.4209C31.6726 21.5488 29.1334 20.497 26.4859 20.497H10.5136Z" fill="white"/>
</svg>
