<svg width="311" height="300" viewBox="0 0 311 300" fill="none" xmlns="http://www.w3.org/2000/svg">
<path d="M47.5979 247.076L32.7883 247.3C27.8197 247.375 22.8066 247.412 17.8084 247.42H17.4678V247.076V238.704V238.33H17.8454L32.7365 238.382L40.1857 238.45L47.6349 238.539H47.7978V238.696L47.5979 247.076ZM47.5979 247.076L47.435 238.704L47.5979 238.869L40.1487 238.958L32.6994 239.026L17.8084 239.078L18.1712 238.704V247.076L17.8306 246.732C22.7622 246.732 27.679 246.776 32.6402 246.851L47.5979 247.076Z" fill="#EBEBEB"/>
<path d="M30.9741 249.26H1.18457V257.632H30.9741V249.26Z" fill="#EBEBEB"/>
<path d="M191.829 279.426H162.039V287.797H191.829V279.426Z" fill="#EBEBEB"/>
<path d="M309.787 178.785H279.998V187.157H309.787V178.785Z" fill="#EBEBEB"/>
<path d="M228.505 8.74585L213.695 8.9703C208.726 9.04511 203.713 9.08252 198.708 9.09H198.367V8.74585V0.374074V0H198.737L213.636 0.052373L221.078 0.119704L228.527 0.209483H228.69V0.366594L228.505 8.74585ZM228.505 8.74585L228.349 0.366594L228.505 0.531187L221.055 0.620964L213.614 0.688298L198.715 0.740668L199.085 0.366594V8.73837L198.745 8.39422C203.669 8.39422 208.593 8.43911 213.554 8.51392L228.505 8.74585Z" fill="#EBEBEB"/>
<path d="M245.121 10.9302H215.332V19.3019H245.121V10.9302Z" fill="#EBEBEB"/>
<path d="M30.9744 8.74585L16.1648 8.9703C11.1962 9.04511 6.18318 9.08252 1.17753 9.09H0.836914V8.74585V0.374074V0H1.20715L16.1056 0.052373L23.5548 0.119704L30.9596 0.209483H31.1225V0.366594L30.9744 8.74585ZM30.9744 8.74585L30.8189 0.366594L30.9744 0.531187L23.5696 0.620964L16.1204 0.688298L1.22196 0.740668L1.5922 0.366594V8.73837L1.25158 8.39422C6.17577 8.39422 11.1 8.43911 16.0612 8.51392L30.9744 8.74585Z" fill="#EBEBEB"/>
<path d="M165.512 122.367H135.722V130.738H165.512V122.367Z" fill="#EBEBEB"/>
<path d="M300.687 5.58105H250.638V66.9217H300.687V5.58105Z" fill="#EBEBEB"/>
<path d="M294.97 11.1772H256.354V61.3181H294.97V11.1772Z" fill="white"/>
<path d="M257.857 11.1772H256.354V61.3181H257.857V11.1772Z" fill="#C7C7C7"/>
<path d="M302.19 5.58105H300.687V66.9217H302.19V5.58105Z" fill="#C7C7C7"/>
<path d="M276.517 50.178H285.625V22.7733H276.517V50.178Z" fill="#EBEBEB"/>
<path d="M289.971 31.8935H264.951V17.6787H289.971V31.8935ZM265.691 31.1454H289.231V18.4269H265.691V31.1454Z" fill="#EBEBEB"/>
<path d="M300.687 156.745H250.638V218.085H300.687V156.745Z" fill="#EBEBEB"/>
<path d="M294.97 162.348H256.354V212.489H294.97V162.348Z" fill="white"/>
<path d="M257.857 162.348H256.354V212.489H257.857V162.348Z" fill="#C7C7C7"/>
<path d="M302.19 156.745H300.687V218.085H302.19V156.745Z" fill="#C7C7C7"/>
<path d="M278.406 173.945H269.298V201.349H278.406V173.945Z" fill="#EBEBEB"/>
<path d="M289.971 183.065H264.951V168.887H289.971V183.065ZM265.691 182.316H289.231V169.635H265.691V182.316Z" fill="#EBEBEB"/>
<path d="M300.687 81.4434H250.638V142.784H300.687V81.4434Z" fill="#EBEBEB"/>
<path d="M294.97 87.0398H256.354V137.181H294.97V87.0398Z" fill="white"/>
<path d="M257.857 87.0398H256.354V137.181H257.857V87.0398Z" fill="#C7C7C7"/>
<path d="M302.19 81.4434H300.687V142.784H302.19V81.4434Z" fill="#C7C7C7"/>
<path d="M279.716 99.9978H271.919V119.921H279.716V99.9978Z" fill="#EBEBEB"/>
<path d="M288.306 126.22H266.61V111.736H288.306V126.22ZM267.35 125.472H287.565V112.484H267.35V125.472Z" fill="#DBDBDB"/>
<path d="M27.9752 224.624C40.2302 236.781 42.2887 255.485 39.7044 271.944C39.6378 272.318 39.0676 272.214 39.0676 271.869C39.0676 268.129 39.1787 264.388 39.1639 260.73C39.0972 260.558 39.0454 260.4 38.9788 260.228C35.7799 257.879 32.8328 255.223 31.0112 251.587C28.9675 247.517 28.1603 242.931 26.5683 238.682C26.4202 238.278 26.8497 238.397 27.1311 238.607C34.5877 244.158 36.9646 250.136 39.1046 258.126C39.0581 253.949 38.6243 249.787 37.8088 245.692C36.1946 238.106 33.0105 230.594 27.6198 224.968C27.5974 224.945 27.5799 224.917 27.5681 224.886C27.5564 224.856 27.5507 224.823 27.5514 224.791C27.5521 224.758 27.5592 224.726 27.5722 224.696C27.5852 224.666 27.6039 224.639 27.6272 224.616C27.6505 224.594 27.6781 224.576 27.7082 224.564C27.7383 224.552 27.7704 224.547 27.8027 224.547C27.8351 224.548 27.8669 224.555 27.8965 224.568C27.9261 224.581 27.9529 224.6 27.9752 224.624Z" fill="#263238"/>
<path d="M25.6726 226.038C23.5622 226.113 22.2368 229.517 20.5929 230.527C20.4202 230.668 20.2202 230.77 20.0057 230.828C19.7913 230.886 19.5672 230.898 19.348 230.862C19.1288 230.827 18.9193 230.746 18.7333 230.623C18.5472 230.501 18.3886 230.341 18.2678 230.153C16.6387 227.856 18.875 225.028 20.9779 223.419C19.497 224.04 18.2308 225.14 16.6091 225.447C16.402 225.517 16.1823 225.541 15.9651 225.517C15.7479 225.494 15.5382 225.423 15.3505 225.31C15.1628 225.197 15.0015 225.045 14.8775 224.863C14.7535 224.681 14.6698 224.475 14.632 224.257C13.8916 221.13 17.8087 219.768 20.4744 219.671C19.1786 218.758 15.4762 216.289 17.4459 215.077C19.4155 213.865 23.7844 217.389 25.2061 218.549C27.2868 220.262 29.7748 222.813 29.8711 225.484C29.9896 228.611 27.2942 226.696 25.6726 226.038Z" fill="#414F6F"/>
<path opacity="0.1" d="M25.6726 226.038C23.5622 226.113 22.2368 229.517 20.5929 230.527C20.4202 230.668 20.2202 230.77 20.0057 230.828C19.7913 230.886 19.5672 230.898 19.348 230.862C19.1288 230.827 18.9193 230.746 18.7333 230.623C18.5472 230.501 18.3886 230.341 18.2678 230.153C16.6387 227.856 18.875 225.028 20.9779 223.419C19.497 224.04 18.2308 225.14 16.6091 225.447C16.402 225.517 16.1823 225.541 15.9651 225.517C15.7479 225.494 15.5382 225.423 15.3505 225.31C15.1628 225.197 15.0015 225.045 14.8775 224.863C14.7535 224.681 14.6698 224.475 14.632 224.257C13.8916 221.13 17.8087 219.768 20.4744 219.671C19.1786 218.758 15.4762 216.289 17.4459 215.077C19.4155 213.865 23.7844 217.389 25.2061 218.549C27.2868 220.262 29.7748 222.813 29.8711 225.484C29.9896 228.611 27.2942 226.696 25.6726 226.038Z" fill="black"/>
<path d="M26.2796 226.562C23.5842 225.327 18.4083 227.108 17.964 226.076C17.0754 223.981 21.2073 222.537 23.4435 222.26C21.385 221.699 17.4457 220.801 17.5641 218.796C17.7122 216.35 23.6139 218.452 26.598 220.764C30.3596 223.682 30.3004 226.495 29.708 227.056C28.8639 227.804 26.7239 226.771 26.2796 226.562Z" fill="#414F6F"/>
<path d="M55.8841 223.427C43.1775 235.068 40.4155 253.727 42.3778 270.246C42.437 270.62 43.0072 270.537 43.022 270.193C43.1627 266.453 43.1923 262.712 43.3404 259.053C43.4144 258.889 43.4737 258.732 43.5477 258.567C46.8354 256.323 49.8714 253.801 51.8337 250.233C54.0551 246.245 55.0029 241.696 56.7282 237.514C56.8911 237.11 56.4543 237.215 56.1655 237.409C48.5089 242.647 45.9098 248.557 43.4737 256.457C43.6737 252.283 44.2638 248.137 45.236 244.075C47.1316 236.594 50.5971 229.18 56.1951 223.763C56.4024 223.561 56.1062 223.217 55.8841 223.427Z" fill="#263238"/>
<path d="M58.1353 224.923C60.2383 225.08 61.4304 228.529 63.0299 229.591C63.1966 229.74 63.3927 229.852 63.6053 229.919C63.8178 229.986 64.0419 230.007 64.263 229.98C64.484 229.953 64.6969 229.879 64.8877 229.763C65.0784 229.647 65.2427 229.492 65.3698 229.307C67.0877 227.063 64.9625 224.16 62.9188 222.499C64.3998 223.18 65.5993 224.324 67.2062 224.691C67.4107 224.769 67.6296 224.802 67.8478 224.786C68.066 224.771 68.2783 224.709 68.4703 224.603C68.6623 224.497 68.8293 224.35 68.9601 224.173C69.0908 223.996 69.1821 223.792 69.2277 223.576C70.057 220.479 66.2658 218.938 63.563 218.766C64.8885 217.913 68.6871 215.586 66.7619 214.277C64.8366 212.967 60.3419 216.342 58.8758 217.449C56.7284 219.072 54.1515 221.526 53.959 224.182C53.7146 227.332 56.484 225.514 58.1353 224.923Z" fill="#414F6F"/>
<path opacity="0.1" d="M58.1353 224.923C60.2383 225.08 61.4304 228.529 63.0299 229.591C63.1966 229.74 63.3927 229.852 63.6053 229.919C63.8178 229.986 64.0419 230.007 64.263 229.98C64.484 229.953 64.6969 229.879 64.8877 229.763C65.0784 229.647 65.2427 229.492 65.3698 229.307C67.0877 227.063 64.9625 224.16 62.9188 222.499C64.3998 223.18 65.5993 224.324 67.2062 224.691C67.4107 224.769 67.6296 224.802 67.8478 224.786C68.066 224.771 68.2783 224.709 68.4703 224.603C68.6623 224.497 68.8293 224.35 68.9601 224.173C69.0908 223.996 69.1821 223.792 69.2277 223.576C70.057 220.479 66.2658 218.938 63.563 218.766C64.8885 217.913 68.6871 215.586 66.7619 214.277C64.8366 212.967 60.3419 216.342 58.8758 217.449C56.7284 219.072 54.1515 221.526 53.959 224.182C53.7146 227.332 56.484 225.514 58.1353 224.923Z" fill="black"/>
<path d="M57.5062 225.424C60.246 224.294 65.3479 226.269 65.8292 225.259C66.7992 223.194 62.7192 221.601 60.4977 221.234C62.5785 220.756 66.5475 220.007 66.503 218.002C66.4438 215.548 60.4755 217.426 57.4025 219.618C53.5372 222.386 53.4558 225.2 54.0556 225.783C54.8775 226.591 57.0471 225.611 57.5062 225.424Z" fill="#414F6F"/>
<path d="M42.933 254.176C42.0714 260.404 40.7521 266.558 38.9862 272.588C38.9617 272.707 38.8913 272.811 38.7906 272.878C38.69 272.945 38.5672 272.968 38.4494 272.943C38.3315 272.919 38.2283 272.847 38.1623 272.746C38.0964 272.644 38.0731 272.52 38.0976 272.401C38.9344 266.73 40.4524 261.179 41.2891 255.485C42.1991 249.746 42.5266 243.927 42.2665 238.121C41.726 228.567 39.1565 218.392 32.9883 210.918C32.8476 210.739 33.1364 210.484 33.2771 210.649C45.6357 225.215 43.6438 243.066 43.6438 244.667C45.3988 238.637 47.1981 231.732 53.818 225.589C54.1068 225.327 54.329 225.455 54.2771 225.904C53.0924 237.081 50.0194 242.924 43.5994 248.902C43.3995 250.667 43.1699 252.433 42.933 254.176Z" fill="#263238"/>
<path d="M32.8331 212.586C30.6117 211.591 27.5461 214.449 25.3468 214.651C24.1843 214.755 23.3179 214.292 23.1254 213.08C22.5774 209.87 26.3095 208.067 29.2788 207.491C27.4054 207.371 25.5764 207.88 23.7326 207.379C23.4806 207.348 23.2381 207.263 23.0218 207.129C22.8055 206.995 22.6206 206.815 22.4798 206.601C22.339 206.388 22.2457 206.146 22.2063 205.893C22.1669 205.64 22.1824 205.381 22.2516 205.134C23.0662 201.528 27.7978 202.059 30.5968 203.346C29.7083 201.745 27.0944 197.301 29.7379 197.039C32.3814 196.777 35.1656 202.665 36.0616 204.596C37.3722 207.424 38.6755 211.329 37.4463 214.157C36.0394 217.456 34.1956 214.09 32.8331 212.586Z" fill="#414F6F"/>
<path opacity="0.1" d="M32.8331 212.586C30.6117 211.591 27.5461 214.449 25.3468 214.651C24.1843 214.755 23.3179 214.292 23.1254 213.08C22.5774 209.87 26.3095 208.067 29.2788 207.491C27.4054 207.371 25.5764 207.88 23.7326 207.379C23.4806 207.348 23.2381 207.263 23.0218 207.129C22.8055 206.995 22.6206 206.815 22.4798 206.601C22.339 206.388 22.2457 206.146 22.2063 205.893C22.1669 205.64 22.1824 205.381 22.2516 205.134C23.0662 201.528 27.7978 202.059 30.5968 203.346C29.7083 201.745 27.0944 197.301 29.7379 197.039C32.3814 196.777 35.1656 202.665 36.0616 204.596C37.3722 207.424 38.6755 211.329 37.4463 214.157C36.0394 217.456 34.1956 214.09 32.8331 212.586Z" fill="black"/>
<path d="M33.2108 213.446C30.9893 210.791 24.7693 210.005 24.8211 208.711C24.9396 206.077 29.9526 206.691 32.411 207.536C30.5598 205.905 26.9167 202.972 28.0348 200.952C29.4121 198.491 34.4844 203.676 36.4244 207.589C38.8754 212.526 37.4537 215.429 36.5281 215.698C35.2545 216.065 33.5662 213.88 33.2108 213.446Z" fill="#414F6F"/>
<path d="M51.0268 257.542L56.4767 299.625H23.3032C23.9845 295.885 30.1601 257.49 30.1601 257.49L51.0268 257.542Z" fill="#414F6F"/>
<path d="M106.614 126.744C105.899 124.235 104.791 121.858 103.333 119.703C101.819 117.572 100.057 115.633 98.0834 113.928C90.2121 107.007 79.3641 104.329 69.1085 105.04C64.4232 105.326 59.83 106.48 55.5577 108.444C53.4758 109.425 51.5454 110.705 49.8264 112.244C48.2343 113.673 46.4424 115.432 45.7019 117.481C45.6782 117.555 45.6788 117.635 45.7036 117.708C45.7284 117.782 45.776 117.845 45.8393 117.889C45.9026 117.932 45.9783 117.954 46.055 117.951C46.1316 117.948 46.2052 117.92 46.2647 117.871C47.2051 117.122 47.9974 116.18 48.8934 115.357C49.7972 114.541 50.7573 113.791 51.7664 113.112C53.7487 111.794 55.8574 110.681 58.0605 109.791C66.8648 106.199 77.313 106.289 86.1987 109.536C90.5077 111.125 94.4855 113.513 97.9279 116.576C99.5498 118.024 101.037 119.62 102.371 121.342C103.801 123.091 105.119 124.93 106.318 126.848C106.451 126.953 106.68 126.908 106.614 126.744Z" fill="#263238"/>
<path d="M100.12 112.588C99.2303 111.153 98.112 109.877 96.8101 108.81C95.4467 107.798 94.0056 106.898 92.5006 106.117C86.9887 103.113 80.9543 101.212 74.729 100.521C71.7255 100.187 68.6885 100.338 65.7322 100.97C64.3312 101.286 62.9492 101.684 61.5929 102.159C60.2117 102.571 58.899 103.189 57.698 103.992C57.6698 104.019 57.6507 104.054 57.6434 104.093C57.6361 104.132 57.641 104.171 57.6574 104.207C57.6738 104.243 57.7008 104.272 57.7347 104.291C57.7685 104.31 57.8075 104.318 57.8461 104.314C59.4307 103.985 60.9487 103.394 62.5408 103.087C64.1328 102.78 65.6212 102.72 67.1762 102.571C85.3697 100.865 98.5281 112.229 99.8165 112.91C99.86 112.942 99.9134 112.956 99.9667 112.951C100.02 112.946 100.07 112.922 100.107 112.883C100.144 112.843 100.165 112.792 100.168 112.738C100.17 112.684 100.153 112.631 100.12 112.588Z" fill="#263238"/>
<path d="M37.1722 170.772C40.8746 173.189 45.2582 171.423 48.1609 168.588C51.182 165.64 53.2406 161.78 54.8252 157.897C56.3061 154.351 57.3502 150.647 58.5276 146.989C59.7049 143.33 60.749 139.507 62.615 136.163C64.3612 132.965 67.2897 130.595 70.7603 129.572C74.5207 128.549 78.5184 128.913 82.0378 130.597C83.9018 131.428 85.5928 132.608 87.0212 134.076C88.3293 135.512 89.3479 137.191 90.0202 139.021C91.5826 142.971 92.3675 147.176 93.3153 151.298C94.0928 154.71 95.7071 157.785 98.8689 159.468C101.564 160.904 104.882 161.338 107.621 159.79C107.662 159.77 107.694 159.736 107.712 159.693C107.73 159.651 107.731 159.604 107.717 159.561C107.702 159.517 107.672 159.481 107.633 159.458C107.593 159.436 107.547 159.428 107.503 159.438C105.777 159.777 103.997 159.709 102.302 159.24C100.607 158.77 99.0415 157.911 97.7286 156.73C96.3752 155.346 95.4381 153.602 95.0258 151.702C94.4334 149.458 93.9892 147.146 93.382 144.887C92.3749 141.146 91.3753 137.053 88.9391 133.941C86.4578 130.926 83.113 128.762 79.3647 127.746C75.7562 126.686 71.9026 126.854 68.3982 128.225C64.9139 129.681 62.0719 132.366 60.401 135.782C56.9059 142.515 55.7804 150.191 53.0851 157.238C51.8447 160.737 49.9939 163.983 47.6203 166.822C45.1545 169.605 41.193 171.67 37.5054 170.122C37.4203 170.081 37.3229 170.075 37.2336 170.105C37.1443 170.135 37.0702 170.199 37.0269 170.284C36.9836 170.369 36.9746 170.467 37.0017 170.558C37.0288 170.649 37.0899 170.726 37.1722 170.772Z" fill="#263238"/>
<path d="M36.365 158.974C38.0681 159.206 39.6305 157.912 40.4228 156.49C41.4999 154.445 42.3255 152.274 42.8812 150.026C44.0543 145.376 45.5387 140.812 47.3241 136.365C50.286 129.4 54.8992 122.681 61.5413 118.821C64.8324 116.884 68.5028 115.698 72.2952 115.346C76.0877 114.993 79.9107 115.482 83.4965 116.778C86.9107 118.036 90.0314 119.992 92.6636 122.524C95.3724 125.217 97.5531 128.403 99.091 131.913C100.628 135.553 101.89 139.304 102.867 143.136C103.304 144.669 103.919 146.532 105.385 147.363C105.932 147.709 106.583 147.848 107.221 147.755C107.86 147.661 108.445 147.342 108.873 146.854C108.954 146.757 108.821 146.652 108.732 146.712C108.317 146.99 107.821 147.12 107.324 147.079C106.827 147.038 106.358 146.83 105.992 146.487C105.201 145.809 104.676 144.867 104.511 143.831C104.015 141.767 103.615 139.687 103.03 137.629C101.936 133.449 100.21 129.464 97.9136 125.816C95.8448 122.686 93.1836 120 90.0833 117.913C86.9829 115.827 83.5047 114.38 79.8488 113.657C76.1929 112.934 72.4315 112.948 68.7812 113.7C65.1309 114.451 61.6638 115.925 58.5794 118.035C52.1816 122.419 47.8498 129.175 44.9841 136.305C43.5031 140.213 42.2665 144.211 41.2817 148.275C40.7931 150.331 40.1899 152.356 39.475 154.343C39.1404 155.213 38.7445 156.058 38.2902 156.872C38.1266 157.245 37.8676 157.568 37.5397 157.808C37.2118 158.047 36.8268 158.194 36.4242 158.233C36.327 158.225 36.2306 158.257 36.1563 158.321C36.0821 158.384 36.0359 158.475 36.0281 158.574C36.0202 158.672 36.0513 158.769 36.1145 158.844C36.1776 158.919 36.2678 158.966 36.365 158.974Z" fill="#263238"/>
<path d="M38.4306 174.005C38.4196 174.088 38.4403 174.172 38.4884 174.24C38.5366 174.308 38.6086 174.355 38.6898 174.371C39.2909 174.516 39.9026 174.611 40.5188 174.656C40.795 174.671 41.0719 174.671 41.3481 174.656C44.6136 174.491 48.0124 172.621 51.4335 169.097C54.3253 166.115 56.7075 162.669 58.4828 158.9C59.8827 155.67 60.9593 152.306 61.6965 148.86C61.9334 147.894 62.1778 146.922 62.437 145.964C63.2441 142.897 64.7103 138.483 68.0202 135.7C69.1373 134.759 70.4491 134.084 71.8588 133.724C73.2685 133.364 74.7403 133.328 76.1655 133.62C78.3781 134.073 80.4749 134.981 82.3257 136.287C84.1766 137.594 85.7419 139.27 86.9246 141.213C88.7797 144.337 89.4481 148.036 88.8054 151.62C88.0186 155.494 86.1565 159.063 83.437 161.907C80.6051 164.852 77.2488 167.23 73.5442 168.917C71.9744 169.666 69.8936 170.661 67.761 171.454L66.5392 171.91C64.9842 172.486 63.3848 173.07 61.852 173.75C61.7527 173.799 61.674 173.882 61.6303 173.984C61.5867 174.087 61.5809 174.202 61.6142 174.308C61.6475 174.414 61.7175 174.505 61.8115 174.563C61.9055 174.621 62.0171 174.644 62.126 174.626C63.1997 174.394 64.2586 174.095 65.2434 173.803C72.389 171.73 81.2896 168.379 86.7173 160.815C89.1703 157.537 90.5941 153.592 90.8047 149.488C90.9016 145.723 89.7437 142.034 87.517 139.014C84.7151 135.123 80.5194 132.492 75.8248 131.682C74.2799 131.425 72.6992 131.492 71.1808 131.878C69.6625 132.264 68.2388 132.961 66.9983 133.926C64.2586 136.074 62.2445 139.493 60.8449 144.401C60.4599 145.732 60.1045 147.094 59.7861 148.411C59.0797 151.597 58.0883 154.712 56.8241 157.718C55.0355 161.637 52.5651 165.199 49.5304 168.237C47.0498 170.705 43.1845 173.646 38.8379 173.653C38.7381 173.647 38.6398 173.68 38.5638 173.746C38.4878 173.811 38.44 173.904 38.4306 174.005Z" fill="#263238"/>
<path d="M37.0092 163.291C37.9332 163.501 38.8933 163.489 39.8118 163.255C40.7303 163.021 41.5814 162.572 42.2962 161.944C43.9179 160.635 44.7546 158.458 45.421 156.527C46.9686 152.038 48.1682 147.4 49.7084 142.889C52.1002 135.856 55.6322 128.674 61.9041 124.439C64.7246 122.566 67.9086 121.324 71.243 120.795C74.5773 120.266 77.9851 120.462 81.238 121.372C84.8388 122.402 88.1028 124.382 90.6939 127.11C93.0701 129.772 94.9537 132.843 96.2549 136.178C96.9436 137.854 97.536 139.559 98.0617 141.295C98.5425 143.131 99.1159 144.942 99.7796 146.719C100.994 149.667 104.052 153.206 107.577 151.747C107.634 151.719 107.681 151.673 107.709 151.615C107.738 151.558 107.747 151.493 107.735 151.43C107.723 151.367 107.691 151.309 107.644 151.267C107.596 151.224 107.537 151.198 107.473 151.193C106.492 151.101 105.541 150.794 104.689 150.294C103.836 149.794 103.101 149.113 102.534 148.298C101.283 146.517 100.801 144.318 100.231 142.245C99.2337 138.374 97.761 134.645 95.8477 131.143C94.142 128.045 91.82 125.337 89.0279 123.19C86.0055 120.982 82.5179 119.513 78.8389 118.896C75.472 118.34 72.0292 118.47 68.7128 119.279C65.3964 120.087 62.2734 121.556 59.5272 123.601C53.433 128.202 49.9602 135.415 47.5832 142.53C46.243 146.525 45.2063 150.602 43.9771 154.627C43.0441 157.694 41.3928 162.857 37.2461 162.176C37.1094 162.167 36.974 162.207 36.8646 162.291C36.7552 162.374 36.6792 162.494 36.6504 162.63C36.6216 162.765 36.6421 162.906 36.7079 163.028C36.7738 163.149 36.8808 163.242 37.0092 163.291Z" fill="#263238"/>
<path d="M36.7057 166.224C37.1928 166.779 37.7811 167.233 38.4384 167.563C39.8009 168.251 41.7928 168.027 43.1552 167.473C44.8296 166.699 46.2355 165.435 47.1908 163.845C48.2351 162.145 49.1178 160.349 49.827 158.481C50.6785 156.408 51.419 154.276 52.1447 152.151C53.6256 147.879 54.9511 143.57 56.5875 139.35C58.0093 135.61 59.779 132.041 62.7557 129.318C65.406 126.861 68.6963 125.221 72.2386 124.591C75.781 123.962 79.4277 124.369 82.7487 125.764C86.1553 127.21 89.0527 129.658 91.0643 132.789C93.2857 136.208 94.2928 140.196 95.2702 144.094C96.144 147.565 96.8474 151.313 99.0466 154.224C100.876 156.655 104.771 158.578 107.34 156.049C107.367 156.025 107.385 155.992 107.389 155.956C107.394 155.92 107.386 155.884 107.366 155.853C107.346 155.823 107.316 155.801 107.281 155.792C107.246 155.782 107.209 155.786 107.177 155.802C105.341 156.722 103.186 156.094 101.653 154.837C100.241 153.588 99.1835 151.982 98.5875 150.184C97.0696 146.211 96.4698 141.954 95.0777 137.906C93.9383 134.318 91.9508 131.065 89.2871 128.427C86.7296 125.959 83.6127 124.161 80.2088 123.19C76.7545 122.286 73.1272 122.299 69.6796 123.23C66.232 124.161 63.0815 125.977 60.5343 128.502C57.7131 131.368 55.9433 134.981 54.5142 138.714C52.9592 142.807 51.7004 147.011 50.2935 151.164C49.553 153.288 48.8125 155.398 47.9906 157.5C47.3655 159.311 46.5851 161.064 45.6581 162.737C44.8037 164.297 43.4666 165.529 41.852 166.246C41.0999 166.583 40.2729 166.711 39.4557 166.617C38.6385 166.524 37.8606 166.212 37.2018 165.715C36.8612 165.453 36.4539 165.94 36.7057 166.224Z" fill="#263238"/>
<path d="M108.213 144.632C108.269 143.66 108.269 142.686 108.213 141.714C107.444 133.694 104.057 126.159 98.5871 120.295C93.5204 114.748 86.7703 111.063 79.4013 109.821C72.1605 108.705 64.7552 109.854 58.1792 113.113C51.6356 116.377 46.249 121.603 42.755 128.076C39.1612 134.457 37.5392 141.779 38.0974 149.099C38.0974 149.256 38.3491 149.226 38.3565 149.099C38.8254 141.199 41.3629 133.567 45.7095 126.983C49.5757 121.238 55.0154 116.756 61.3632 114.085C67.6974 111.46 74.6782 110.87 81.3562 112.395C88.2348 114.12 94.3617 118.082 98.7945 123.669C101.135 126.632 103.022 129.933 104.393 133.462C105.747 137.114 106.819 140.866 107.599 144.685C107.71 144.969 108.191 144.969 108.213 144.632Z" fill="#263238"/>
<path d="M96.9064 171.618C97.7209 170.406 99.4685 171.476 100.372 171.984C101.727 172.732 103.186 173.757 104.815 173.481C104.841 173.472 104.87 173.474 104.895 173.486C104.92 173.499 104.939 173.521 104.948 173.548C104.957 173.575 104.955 173.604 104.942 173.629C104.93 173.655 104.908 173.674 104.881 173.683C104.353 173.947 103.773 174.088 103.183 174.095C102.594 174.103 102.01 173.978 101.475 173.728C100.899 173.489 100.335 173.219 99.7869 172.92C99.2677 172.616 98.713 172.38 98.1356 172.216C98.03 172.202 97.9228 172.202 97.8172 172.216C97.7061 172.216 97.7357 172.216 97.7209 172.254C97.6173 172.448 97.7802 172.86 97.8394 173.054C97.9765 173.56 98.1676 174.049 98.4096 174.513C98.9238 175.468 99.575 176.34 100.342 177.102C100.774 177.548 101.231 177.967 101.712 178.359C102.201 178.755 102.778 179.054 103.245 179.473C103.283 179.494 103.312 179.529 103.324 179.572C103.337 179.614 103.332 179.659 103.312 179.698C103.291 179.736 103.256 179.765 103.214 179.778C103.173 179.791 103.128 179.786 103.089 179.765C102.526 179.588 101.988 179.337 101.49 179.017C100.969 178.709 100.474 178.358 100.009 177.97C99.0694 177.188 98.2789 176.24 97.6765 175.171C97.374 174.64 97.1259 174.078 96.936 173.496C96.7857 173.207 96.7046 172.886 96.6995 172.56C96.6943 172.234 96.7652 171.911 96.9064 171.618Z" fill="#263238"/>
<path d="M99.3868 173.937C100.27 174.346 101.095 174.875 101.838 175.508C102.169 175.787 102.509 176.049 102.86 176.294C103.03 176.413 103.215 176.526 103.393 176.63C103.575 176.725 103.763 176.807 103.956 176.877C103.992 176.888 104.024 176.911 104.047 176.942C104.07 176.973 104.083 177.011 104.083 177.049C104.083 177.088 104.07 177.126 104.047 177.157C104.024 177.188 103.992 177.21 103.956 177.221C103.074 177.438 102.149 176.855 101.482 176.346C100.642 175.73 99.8935 174.994 99.2609 174.161C99.1573 174.087 99.2461 173.937 99.3868 173.937Z" fill="#263238"/>
<path d="M41.5037 176.682C41.5001 176.7 41.5001 176.718 41.5037 176.735C41.5087 176.796 41.5331 176.853 41.5731 176.899C41.6131 176.945 41.6667 176.977 41.7258 176.989C41.9441 177.046 42.1673 177.081 42.3922 177.094C43.175 177.107 43.9555 177.006 44.71 176.795C45.7663 176.542 46.7937 176.178 47.7755 175.71C49.6947 174.772 51.4704 173.56 53.0478 172.111C58.4162 167.368 62.1927 160.612 64.2734 152.016C64.4067 151.447 64.5474 150.871 64.6807 150.303C65.4212 147.198 66.1616 143.996 67.8647 141.325C68.7602 139.913 69.9795 138.74 71.4191 137.906C72.9186 137.146 74.5856 136.785 76.2618 136.859C76.3481 136.855 76.4307 136.822 76.4968 136.766C76.5629 136.71 76.6088 136.633 76.6274 136.548C76.6459 136.462 76.6361 136.373 76.5995 136.294C76.5628 136.215 76.5014 136.151 76.4247 136.11C74.5068 135.16 72.1225 136.058 71.1895 136.484C69.5351 137.278 68.0853 138.448 66.954 139.904C64.7325 142.679 63.9032 146.24 63.1035 149.682L62.8961 150.542C62.0418 154.43 60.7214 158.199 58.9642 161.764C57.1576 165.264 54.7364 168.402 51.8186 171.026C50.4061 172.336 48.8334 173.458 47.1387 174.363C46.2684 174.805 45.3676 175.182 44.4434 175.493C44.1324 175.598 43.814 175.68 43.4956 175.77C42.8697 175.918 42.2615 176.133 41.6814 176.413C41.6304 176.438 41.5869 176.475 41.5556 176.523C41.5243 176.57 41.5063 176.626 41.5037 176.682Z" fill="#263238"/>
<path d="M60.0828 172.441C60.0785 172.498 60.09 172.556 60.1161 172.608C60.1423 172.659 60.182 172.702 60.2308 172.732C60.2741 172.764 60.3256 172.782 60.3789 172.785C60.4329 172.787 60.4865 172.775 60.5346 172.75C60.5826 172.725 60.6234 172.688 60.6529 172.643C61.3021 171.833 62.157 171.218 63.1261 170.862C63.9999 170.451 64.9107 170.114 65.7918 169.747L66.1917 169.583C68.6131 168.625 70.5827 167.772 72.3895 166.897C80.4015 163.014 85.1776 157.986 86.6067 151.934C87.4182 148.706 87.0173 145.289 85.4812 142.343C84.784 140.94 83.8048 139.7 82.6063 138.702C81.4077 137.703 80.0162 136.969 78.5207 136.544C78.4323 136.521 78.3386 136.531 78.2569 136.573C78.1752 136.614 78.1111 136.684 78.0764 136.769C78.0412 136.847 78.0361 136.936 78.0621 137.017C78.0881 137.099 78.1434 137.168 78.2171 137.21C81.0869 138.89 83.3299 141.477 84.6 144.572C86.2217 148.911 85.4368 156.004 77.8691 161.742C75.0394 163.761 71.9912 165.448 68.7834 166.77C67.184 167.48 65.3772 168.266 63.6445 169.216C62.9269 169.58 62.243 170.008 61.6007 170.495C61.0103 170.999 60.5094 171.602 60.1198 172.276C60.0903 172.325 60.0773 172.383 60.0828 172.441Z" fill="#263238"/>
<path d="M39.1342 178.201C40.2225 178.862 41.457 179.237 42.7255 179.293C45.0478 179.329 47.341 178.768 49.3898 177.662C52.4375 176.034 55.2014 173.914 57.5721 171.385C57.8016 171.146 58.0164 170.899 58.2385 170.637L58.4385 170.42C58.4916 170.395 58.5393 170.359 58.5791 170.315C60.4526 168.43 63.022 167.383 65.4878 166.365C66.3468 166.014 67.2428 165.617 68.0795 165.258C72.2188 163.313 75.04 161.383 77.217 158.988C79.4246 156.677 80.8169 153.696 81.1786 150.504C81.4378 147.736 80.7935 143.876 78.15 142.08C75.5065 140.285 72.1596 141.564 70.1973 143.726C67.9166 146.248 66.754 149.809 65.8136 152.704L65.4878 153.714C64.6325 156.607 63.5376 159.423 62.2149 162.131C60.7524 164.928 58.9216 167.513 56.7724 169.814C54.6347 172.103 52.1983 174.086 49.5305 175.71C46.0206 177.827 42.5996 178.47 39.3785 177.647H39.3193C39.2522 177.645 39.186 177.663 39.1292 177.699C39.0724 177.735 39.0277 177.787 39.0009 177.849C38.9799 177.914 38.9817 177.985 39.0059 178.049C39.0302 178.113 39.0754 178.167 39.1342 178.201ZM61.5707 166.455C62.1038 165.707 62.5703 164.959 62.985 164.211C64.531 161.435 65.7725 158.497 66.6874 155.45C66.8429 154.963 66.991 154.477 67.1539 153.953C68.0055 151.23 68.8866 148.41 70.449 146.031C71.1968 144.76 72.3174 143.756 73.6553 143.158C74.265 142.915 74.9186 142.805 75.5732 142.836C76.3549 142.866 77.1005 143.176 77.6761 143.711C79.8976 145.806 80.0382 149.644 79.1571 152.517C78.1537 155.402 76.3204 157.919 73.8923 159.744C71.1451 161.951 67.8944 163.425 65.0065 164.727L64.7325 164.846C63.7033 165.393 62.6 165.894 61.5707 166.455Z" fill="#263238"/>
<path d="M66.3915 161.473C66.3737 161.539 66.3755 161.609 66.3965 161.674C66.4176 161.739 66.457 161.797 66.51 161.839C66.5644 161.885 66.632 161.911 66.7025 161.914C66.7496 161.917 66.7967 161.909 66.8403 161.891C66.8839 161.873 66.9229 161.845 66.9543 161.81C67.1172 161.645 68.3167 160.777 68.8943 160.381C69.0794 160.253 69.272 160.134 69.4571 159.999C69.8495 159.737 70.2568 159.468 70.6418 159.169C71.7965 158.286 72.8809 157.312 73.8851 156.258C75.8252 154.201 76.736 152.143 76.5731 150.131C76.5703 149.634 76.4302 149.148 76.1685 148.728C75.9068 148.308 75.534 147.969 75.0921 147.752C74.5545 147.57 73.9735 147.565 73.433 147.739C72.8926 147.912 72.4208 148.255 72.0858 148.717C71.4122 149.624 70.8871 150.634 70.5308 151.71C70.1902 152.577 69.8866 153.483 69.583 154.351L69.3386 155.054C68.5057 157.148 67.5334 159.182 66.4285 161.144C66.3934 161.19 66.3714 161.245 66.3648 161.303C66.3583 161.361 66.3675 161.42 66.3915 161.473ZM70.1753 156.296C70.8742 154.451 71.6955 152.657 72.6337 150.924L72.6782 150.849C72.9299 150.4 73.5297 149.353 74.1073 149.233H74.2332C74.355 149.244 74.471 149.29 74.5664 149.368C75.0699 149.764 74.9959 150.864 74.7589 151.695C74.2109 153.685 72.5375 155.293 71.2342 156.587L70.1976 157.59C69.8421 157.927 69.4941 158.271 69.1461 158.615C69.5904 157.785 69.9088 156.969 70.1753 156.296Z" fill="#263238"/>
<path d="M71.0714 195.229C69.7923 197.796 68.6455 200.428 67.6356 203.114C67.6331 203.132 67.6362 203.15 67.6444 203.165C67.6527 203.181 67.6656 203.193 67.6814 203.201C67.6971 203.208 67.7148 203.21 67.7319 203.207C67.749 203.204 67.7645 203.195 67.7763 203.182C69.2202 201.012 70.4198 198.693 71.7749 196.448C72.6635 195.005 74.2703 191.63 76.4399 192.177C77.3507 192.401 78.0023 193.418 78.5058 194.144C79.166 195.148 79.883 196.112 80.6532 197.032C81.838 198.394 84.0594 200.174 85.9995 199.695C86.0884 199.695 86.1402 199.531 86.0513 199.486C85.533 199.209 84.985 199.037 84.4741 198.738C83.9109 198.417 83.3887 198.027 82.9191 197.578C82.0129 196.644 81.2132 195.61 80.5348 194.496C79.424 192.76 78.1282 190.471 75.7142 190.755C73.478 191.017 71.9526 193.389 71.0714 195.229Z" fill="#263238"/>
<path d="M39.0303 180.139C41.3776 183.259 45.5761 182.705 48.6121 181.044C50.3616 180.017 52.0126 178.827 53.5437 177.49C55.1633 176.111 56.8975 174.874 58.727 173.795C58.7496 173.788 58.7685 173.772 58.7797 173.751C58.7908 173.73 58.7931 173.705 58.7863 173.682C58.7794 173.66 58.7638 173.64 58.743 173.629C58.7222 173.618 58.6978 173.616 58.6752 173.623C54.921 174.229 52.2108 177.363 49.1526 179.338C46.2796 181.209 42.1107 182.331 39.1488 179.967C39.0747 179.877 38.9562 180.042 39.0303 180.139Z" fill="#263238"/>
<path d="M100.165 186.049C100.402 186.049 100.498 185.69 100.254 185.63C96.4624 184.68 93.4708 181.807 91.6344 178.388C89.9735 175.272 89.0152 171.823 88.828 168.288C88.6568 165.63 89.0454 162.965 89.9684 160.47C90.2122 159.638 90.6372 158.871 91.2124 158.226C91.3427 158.059 91.5068 157.922 91.6938 157.824C91.8807 157.726 92.0861 157.669 92.2963 157.658C92.5065 157.647 92.7167 157.681 92.9129 157.758C93.109 157.835 93.2866 157.954 93.4338 158.106C93.8389 158.675 94.2027 159.272 94.5223 159.894C95.394 161.215 96.5543 162.315 97.9137 163.111C99.2664 163.906 100.793 164.351 102.357 164.405C104.017 164.449 105.656 164.021 107.088 163.171C107.185 163.111 107.14 162.924 107.022 162.961C105.048 163.57 102.94 163.576 100.964 162.976C98.9872 162.377 97.2304 161.201 95.9144 159.595C95.011 158.42 94.5223 156.602 92.797 156.468C91.0717 156.333 89.8721 157.724 89.1909 159.168C87.6743 162.629 87.1756 166.457 87.7543 170.196C88.6651 176.787 92.5897 185.698 100.165 186.049Z" fill="#263238"/>
<path d="M72.7669 200.631C72.5292 201.313 72.4212 202.034 72.4485 202.756C72.4539 202.777 72.4653 202.797 72.4811 202.812C72.497 202.828 72.5169 202.838 72.5384 202.843C72.5599 202.848 72.5823 202.846 72.603 202.839C72.6238 202.831 72.642 202.818 72.6558 202.801C72.9994 202.257 73.2614 201.664 73.4333 201.043C73.6628 200.399 73.8998 199.756 74.1738 199.127C74.4438 198.496 74.7606 197.885 75.1216 197.302C75.2403 197.045 75.4005 196.81 75.5955 196.606L75.6473 196.569L75.7658 196.688C75.8771 196.796 75.981 196.911 76.0768 197.032C76.8287 198.076 77.6396 199.076 78.5056 200.025C79.2461 200.721 80.4234 201.476 81.4675 201.237C81.4817 201.23 81.4937 201.22 81.5021 201.207C81.5105 201.193 81.515 201.178 81.515 201.162C81.515 201.146 81.5105 201.131 81.5021 201.118C81.4937 201.105 81.4817 201.094 81.4675 201.087C80.8731 200.78 80.3226 200.392 79.831 199.935C79.3728 199.456 78.9589 198.935 78.5944 198.379C78.1724 197.796 77.7947 197.175 77.3356 196.613C76.8765 196.052 76.3656 195.327 75.6325 195.327C74.8994 195.327 74.5514 195.993 74.2626 196.524C73.9111 197.158 73.6139 197.821 73.3741 198.506C73.1741 199.21 72.952 199.913 72.7669 200.631Z" fill="#263238"/>
<path d="M101.935 182.017C101.963 182.026 101.994 182.024 102.021 182.012C102.049 182 102.071 181.979 102.084 181.952C102.098 181.925 102.101 181.894 102.094 181.865C102.087 181.836 102.07 181.81 102.046 181.792C101.136 181.016 100.293 180.163 99.528 179.241C98.7991 178.281 98.1218 177.282 97.4991 176.249C96.2593 174.469 95.1976 172.569 94.3298 170.578C93.8816 169.611 93.649 168.556 93.6486 167.488C93.7893 165.992 95.2776 167.084 95.9218 167.645C96.6385 168.354 97.4057 169.009 98.2173 169.605C99.8297 170.653 101.743 171.125 103.652 170.944C104.571 170.779 105.454 170.458 106.266 169.994C106.451 169.912 106.318 169.657 106.133 169.717C105.407 169.897 104.658 169.968 103.912 169.927C103.298 169.938 102.683 169.901 102.075 169.815C100.81 169.615 99.6074 169.126 98.5579 168.386C97.2991 167.48 94.9888 164.443 93.2265 165.909C91.7011 167.174 92.8785 170.114 93.4931 171.55C94.5101 173.73 95.7511 175.797 97.1955 177.715C98.3802 179.361 99.95 181.329 101.935 182.017Z" fill="#263238"/>
<path d="M43.7551 187.74C45.369 188.064 47.0446 187.78 48.4646 186.939C48.7682 186.775 49.0495 186.588 49.3457 186.401C49.1902 186.58 49.0421 186.752 48.9014 186.932C47.8843 188.187 47.2467 189.712 47.0651 191.324C47.0645 191.346 47.0708 191.367 47.0831 191.385C47.0954 191.403 47.1131 191.417 47.1336 191.425C47.1541 191.432 47.1764 191.433 47.1973 191.427C47.2182 191.421 47.2367 191.408 47.2502 191.391C48.0795 190.112 48.9311 188.825 49.8789 187.65C50.8267 186.476 51.93 185.316 52.8408 184.081C52.8761 184.027 52.895 183.963 52.895 183.898C52.895 183.832 52.8762 183.768 52.8409 183.714C52.8056 183.659 52.7552 183.616 52.6961 183.589C52.6369 183.563 52.5714 183.555 52.5076 183.565C50.9378 183.924 49.7604 185.062 48.3683 185.81C46.8954 186.589 45.3405 187.199 43.7329 187.628C43.6737 187.628 43.6737 187.725 43.7551 187.74Z" fill="#263238"/>
<path d="M60.9414 194.743C60.0992 196.327 59.3573 197.964 58.7199 199.643C58.6993 199.684 58.6955 199.731 58.7094 199.775C58.7233 199.818 58.7537 199.854 58.794 199.875C58.8342 199.896 58.881 199.9 58.9241 199.886C58.9671 199.872 59.0029 199.841 59.0235 199.8C60.2823 198.087 61.2968 196.187 62.4668 194.406C63.6367 192.626 64.7993 191.01 66.0729 189.386C68.0977 186.743 70.5513 184.467 73.3296 182.653C74.0417 182.194 74.7839 181.784 75.551 181.426C76.3419 180.974 77.2275 180.718 78.1353 180.678C79.7792 180.768 80.8455 182.361 81.5785 183.596C83.3483 186.588 84.8589 189.745 87.5986 192.027C88.7986 193.083 90.2468 193.809 91.8046 194.137C92.468 194.331 93.175 194.31 93.8261 194.077C94.026 193.95 94.1519 193.763 93.9519 193.583C93.8853 193.531 93.7816 193.583 93.8261 193.688C93.8705 193.793 92.8708 193.591 92.8264 193.576L92.1896 193.396C91.7423 193.257 91.3086 193.077 90.8938 192.858C90.1025 192.441 89.3577 191.939 88.6723 191.361C87.2102 190.041 85.983 188.477 85.044 186.738C84.1924 185.279 83.4371 183.745 82.4893 182.346C81.7515 181.083 80.6257 180.098 79.283 179.541C77.5947 178.987 75.8842 179.6 74.3589 180.289C72.8874 180.962 71.4942 181.797 70.2048 182.78C67.5749 184.795 65.3187 187.265 63.5405 190.075C62.594 191.584 61.7265 193.142 60.9414 194.743Z" fill="#263238"/>
<path d="M65.1842 198.079C64.6637 199.329 64.2957 200.638 64.0883 201.977C64.0863 201.999 64.0918 202.021 64.1036 202.039C64.1155 202.057 64.1332 202.071 64.1537 202.078C64.1743 202.085 64.1965 202.085 64.2169 202.077C64.2373 202.07 64.2546 202.055 64.266 202.037C65.0065 200.735 65.5248 199.291 66.2949 197.989C67.065 196.688 67.7759 195.401 68.5163 194.151C69.9017 191.907 71.5067 189.809 73.3072 187.889C74.1588 187.014 75.1584 186.266 76.4024 186.393C77.5692 186.632 78.6168 187.275 79.3644 188.211C81.0378 190.104 81.8079 192.7 83.5333 194.555C84.2979 195.403 85.2521 196.052 86.3162 196.451C87.3803 196.849 88.5233 196.984 89.6496 196.845C89.7237 196.845 89.7459 196.688 89.6496 196.665C88.1998 196.315 86.8413 195.654 85.6659 194.727C84.5201 193.734 83.577 192.524 82.8891 191.166C81.6154 188.922 80.3788 186.483 77.9723 185.361C76.9169 184.848 75.7051 184.773 74.5957 185.151C73.4393 185.66 72.4228 186.446 71.6338 187.44C69.7526 189.501 68.1333 191.791 66.8132 194.256C66.1811 195.49 65.6367 196.767 65.1842 198.079Z" fill="#263238"/>
<path d="M54.4697 196.815C54.4519 196.875 54.4564 196.939 54.4823 196.996C54.5083 197.052 54.5538 197.097 54.6104 197.122H54.7067C54.7488 197.122 54.7904 197.112 54.8278 197.093C54.8652 197.073 54.8973 197.045 54.9214 197.01C56.0417 195.239 57.2553 193.531 58.5572 191.892C59.925 190.211 61.3861 188.61 62.9334 187.097C65.4973 184.451 68.2359 181.984 71.1305 179.712C72.5588 178.613 74.1096 177.687 75.7511 176.952C77.3135 176.264 79.4535 175.328 80.9345 176.66C81.7941 177.561 82.4752 178.62 82.9411 179.78C83.1485 180.214 83.3558 180.633 83.5706 181.029C84.4706 182.719 85.5294 184.317 86.7324 185.802C87.9004 187.251 89.2994 188.492 90.8717 189.476C92.3751 190.433 94.0898 190.998 95.8625 191.122C95.9231 191.128 95.9839 191.111 96.0322 191.073C96.0804 191.036 96.1125 190.981 96.1217 190.92C96.1378 190.861 96.1305 190.799 96.1014 190.745C96.0723 190.692 96.0238 190.653 95.9662 190.635C91.042 188.892 87.8801 185.084 86.103 182.196C85.6069 181.388 85.1552 180.513 84.7331 179.675C84.311 178.837 83.8742 177.992 83.3706 177.184C82.2969 175.426 80.9196 174.528 79.3054 174.475C77.3653 174.423 75.3512 175.276 73.8184 176.009C72.1342 176.831 70.5428 177.834 69.072 179.002C66.0969 181.446 63.3211 184.128 60.7712 187.022C58.1277 189.902 55.5212 193.089 54.4697 196.815Z" fill="#263238"/>
<path d="M100.69 184.478C100.935 184.598 101.083 184.231 100.898 184.082C98.4178 182.176 96.2791 179.856 94.5739 177.221C93.1775 174.926 92.2134 172.39 91.7305 169.74C91.4746 168.383 91.3433 167.006 91.338 165.625C91.338 164.615 91.0789 162.064 92.545 162.056C94.0112 162.049 94.8183 163.829 95.6698 164.682C96.6426 165.68 97.79 166.487 99.0538 167.061C100.307 167.655 101.702 167.873 103.075 167.692C104.447 167.51 105.739 166.936 106.799 166.036C106.816 166.022 106.827 166.003 106.831 165.981C106.834 165.959 106.829 165.937 106.817 165.918C106.805 165.9 106.787 165.886 106.766 165.88C106.745 165.875 106.723 165.877 106.703 165.887C103.445 167.72 99.1723 166.291 96.6547 163.837C95.6328 162.849 94.8035 161.42 93.3521 161.024C93.0586 160.908 92.7441 160.857 92.4294 160.873C92.1147 160.89 91.8071 160.973 91.527 161.119C91.2468 161.265 91.0006 161.469 90.8046 161.719C90.6086 161.968 90.4674 162.256 90.3902 162.565C90.0952 163.943 90.0103 165.358 90.1384 166.762C90.2058 168.185 90.4192 169.596 90.7753 170.974C92.234 176.451 95.5958 181.875 100.69 184.478Z" fill="#263238"/>
<path d="M52.3815 191.496C51.7892 192.528 51.3478 193.642 51.0709 194.803C51.0419 194.94 51.0607 195.084 51.1241 195.209C51.1875 195.334 51.2915 195.434 51.4189 195.491C51.4741 195.51 51.5312 195.522 51.5892 195.528C51.6806 195.532 51.7714 195.512 51.8522 195.468C51.9329 195.425 52.0006 195.36 52.0483 195.281C52.4852 194.6 52.8998 193.905 53.3145 193.216C54.1975 191.669 55.1872 190.187 56.2764 188.78C57.8987 186.799 59.6607 184.938 61.5486 183.214C65.3627 179.994 69.3555 176.996 73.5074 174.236C79.4312 170.256 83.4964 168.153 84.4295 168.587C85.0663 168.887 85.0959 169.957 85.1255 170.832C85.1256 171.082 85.1379 171.331 85.1625 171.58C85.3144 172.805 85.5319 174.022 85.8142 175.223C86.3109 177.526 87.1683 179.733 88.354 181.762C89.4439 183.609 90.9229 185.19 92.6858 186.393C93.6484 187.029 96.1438 188.458 98.4393 188.017C98.4991 187.993 98.5509 187.952 98.5884 187.9C98.6258 187.847 98.6475 187.785 98.6506 187.72C98.6537 187.655 98.6382 187.591 98.606 187.534C98.5738 187.478 98.5262 187.433 98.4689 187.403C98.0913 187.254 97.7285 187.119 97.3508 186.984C96.5569 186.712 95.7824 186.384 95.0331 186.004C93.9511 185.414 92.9545 184.677 92.0712 183.812C90.2757 181.986 88.9246 179.762 88.1245 177.318C87.3784 174.936 86.882 172.481 86.6435 169.994C86.6371 169.464 86.5118 168.942 86.2771 168.468C86.0424 167.993 85.7044 167.579 85.2884 167.256C84.4146 166.68 82.9115 167.076 82.171 167.398C77.9206 169.238 64.2662 178.051 58.8237 183.154C57.1306 184.78 55.6049 186.574 54.2697 188.511C53.5862 189.47 52.9558 190.466 52.3815 191.496Z" fill="#263238"/>
<path d="M41.5703 184.456C44.4211 185.706 47.7977 184.456 50.3968 183.154C52.9959 181.853 55.1359 180.094 57.5721 178.665C58.2015 178.306 58.8309 177.97 59.4825 177.663C59.8083 177.513 60.1415 177.371 60.4747 177.244C60.6451 177.177 60.845 177.049 61.0227 177.109C61.2004 177.169 61.2374 177.109 61.0967 177.251C60.9561 177.394 61.0079 177.379 60.9561 177.439C60.1119 178.501 58.7864 179.264 57.772 180.147C55.6971 181.919 53.811 183.904 52.1443 186.072C50.5745 188.13 48.9381 190.494 48.442 193.09C48.442 193.217 48.59 193.262 48.6567 193.172C49.6563 191.795 50.4931 190.299 51.4853 188.915C52.4597 187.566 53.5367 186.295 54.7064 185.115C55.7505 184.052 56.839 183.027 57.9423 182.032C59.0456 181.037 60.2082 180.184 61.2004 179.129C61.8891 178.381 63.1183 176.885 61.7706 176.137C60.6821 175.538 59.0678 176.563 58.1052 177.049C55.3802 178.426 52.9219 180.289 50.2709 181.77C48.9068 182.548 47.4582 183.163 45.9539 183.603C44.5194 183.974 43.05 184.19 41.5703 184.247C41.4518 184.254 41.4518 184.411 41.5703 184.456Z" fill="#263238"/>
<path d="M75.5733 199.045C75.5721 199.018 75.5721 198.99 75.5733 198.963C75.5823 198.937 75.597 198.914 75.6163 198.894C75.6357 198.875 75.6591 198.861 75.6848 198.852C75.7106 198.843 75.7379 198.841 75.7648 198.844C75.7917 198.848 75.8174 198.858 75.8399 198.873L75.8991 198.911C76.1583 199.008 76.3286 199.389 76.4249 199.614C76.5211 199.838 76.6692 200.175 76.7951 200.444C77.0395 200.983 77.2542 201.537 77.5356 202.068C77.5507 202.091 77.5569 202.119 77.5528 202.146C77.5488 202.174 77.5349 202.199 77.5137 202.216C77.4926 202.234 77.4657 202.243 77.4383 202.242C77.4109 202.241 77.3849 202.229 77.3653 202.21C76.8405 201.849 76.3924 201.386 76.0472 200.848C75.8924 200.587 75.7563 200.314 75.64 200.033C75.5672 199.856 75.5199 199.669 75.4993 199.479C75.4773 199.33 75.5033 199.178 75.5733 199.045Z" fill="#263238"/>
<path d="M17.5715 118.335H15.3501V92.1045H41.3113V94.3489H17.5715V118.335Z" fill="#414F6F"/>
<path d="M129.488 207.417H103.526V205.172H127.266V181.187H129.488V207.417Z" fill="#414F6F"/>
<path d="M41.3113 207.417H15.3501V181.187H17.5715V205.172H41.3113V207.417Z" fill="#414F6F"/>
<path d="M129.488 118.335H127.266V94.3489H103.526V92.1045H129.488V118.335Z" fill="#414F6F"/>
<path d="M135.204 213.199H133.449V212.638H134.649V211.426H135.204V213.199Z" fill="#414F6F"/>
<path d="M130.472 213.199H127.51V212.638H130.472V213.199ZM124.548 213.199H121.587V212.638H124.548V213.199ZM118.625 213.199H115.663V212.638H118.625V213.199ZM112.701 213.199H109.739V212.638H112.701V213.199ZM106.777 213.199H103.815V212.638H106.777V213.199ZM100.853 213.199H97.8912V212.638H100.853V213.199ZM94.9293 213.199H91.9674V212.638H94.9293V213.199ZM89.0055 213.199H86.0436V212.638H89.0055V213.199ZM83.0816 213.199H80.1197V212.638H83.0816V213.199ZM77.1578 213.199H74.1959V212.638H77.1578V213.199ZM71.234 213.199H68.272V212.638H71.234V213.199ZM65.3101 213.199H62.3482V212.638H65.3101V213.199ZM59.3863 213.199H56.4244V212.638H59.3863V213.199ZM53.4625 213.199H50.5005V212.638H53.4625V213.199ZM47.5386 213.199H44.5767V212.638H47.5386V213.199ZM41.6148 213.199H38.6529V212.638H41.6148V213.199ZM35.6909 213.199H32.729V212.638H35.6909V213.199ZM29.7671 213.199H26.8052V212.638H29.7671V213.199ZM23.8433 213.199H20.8814V212.638H23.8433V213.199ZM17.9194 213.199H14.9575V212.638H17.9194V213.199Z" fill="#414F6F"/>
<path d="M11.3887 213.199H9.63379V211.426H10.1891V212.638H11.3887V213.199Z" fill="#414F6F"/>
<path d="M10.1889 208.412H9.61133V205.419H10.1667L10.1889 208.412ZM10.1889 202.426H9.61133V199.434H10.1667L10.1889 202.426ZM10.1889 196.441H9.61133V193.449H10.1667L10.1889 196.441ZM10.1889 190.456H9.61133V187.463H10.1667L10.1889 190.456ZM10.1889 184.471H9.61133V181.478H10.1667L10.1889 184.471ZM10.1889 178.486H9.61133V175.493H10.1667L10.1889 178.486ZM10.1889 172.5H9.61133V169.508H10.1667L10.1889 172.5ZM10.1889 166.515H9.61133V163.523H10.1667L10.1889 166.515ZM10.1889 160.53H9.61133V157.538H10.1667L10.1889 160.53ZM10.1889 154.545H9.61133V151.552H10.1667L10.1889 154.545ZM10.1889 148.56H9.61133V145.567H10.1667L10.1889 148.56ZM10.1889 142.575H9.61133V139.582H10.1667L10.1889 142.575ZM10.1889 136.589H9.61133V133.597H10.1667L10.1889 136.589ZM10.1889 130.604H9.61133V127.612H10.1667L10.1889 130.604ZM10.1889 124.619H9.61133V121.626H10.1667L10.1889 124.619ZM10.1889 118.596H9.61133V115.604H10.1667L10.1889 118.596ZM10.1889 112.611H9.61133V109.619H10.1667L10.1889 112.611ZM10.1889 106.626H9.61133V103.633H10.1667L10.1889 106.626ZM10.1889 100.641H9.61133V97.6483H10.1667L10.1889 100.641ZM10.1889 94.6557H9.61133V91.6631H10.1667L10.1889 94.6557Z" fill="#414F6F"/>
<path d="M10.1891 88.1015H9.63379V86.3284H11.3887V86.8895H10.1891V88.1015Z" fill="#414F6F"/>
<path d="M130.472 86.8895H127.51V86.3284H130.472V86.8895ZM124.548 86.8895H121.587V86.3284H124.548V86.8895ZM118.625 86.8895H115.663V86.3284H118.625V86.8895ZM112.701 86.8895H109.739V86.3284H112.701V86.8895ZM106.777 86.8895H103.815V86.3284H106.777V86.8895ZM100.853 86.8895H97.8912V86.3284H100.853V86.8895ZM94.9293 86.8895H91.9674V86.3284H94.9293V86.8895ZM89.0055 86.8895H86.0436V86.3284H89.0055V86.8895ZM83.0816 86.8895H80.1197V86.3284H83.0816V86.8895ZM77.1578 86.8895H74.1959V86.3284H77.1578V86.8895ZM71.234 86.8895H68.272V86.3284H71.234V86.8895ZM65.3101 86.8895H62.3482V86.3284H65.3101V86.8895ZM59.3863 86.8895H56.4244V86.3284H59.3863V86.8895ZM53.4625 86.8895H50.5005V86.3284H53.4625V86.8895ZM47.5386 86.8895H44.5767V86.3284H47.5386V86.8895ZM41.6148 86.8895H38.6529V86.3284H41.6148V86.8895ZM35.6909 86.8895H32.729V86.3284H35.6909V86.8895ZM29.7671 86.8895H26.8052V86.3284H29.7671V86.8895ZM23.8433 86.8895H20.8814V86.3284H23.8433V86.8895ZM17.9194 86.8895H14.9575V86.3284H17.9194V86.8895Z" fill="#414F6F"/>
<path d="M135.204 88.1015H134.649V86.8895H133.449V86.3284H135.204V88.1015Z" fill="#414F6F"/>
<path d="M135.204 208.412H134.649V205.419H135.204V208.412ZM135.204 202.426H134.649V199.434H135.204V202.426ZM135.204 196.441H134.649V193.449H135.204V196.441ZM135.204 190.456H134.649V187.463H135.204V190.456ZM135.204 184.471H134.649V181.478H135.204V184.471ZM135.204 178.486H134.649V175.493H135.204V178.486ZM135.204 172.5H134.649V169.508H135.204V172.5ZM135.204 166.515H134.649V163.523H135.204V166.515ZM135.204 160.53H134.649V157.538H135.204V160.53ZM135.204 154.545H134.649V151.552H135.204V154.545ZM135.204 148.56H134.649V145.567H135.204V148.56ZM135.204 142.575H134.649V139.582H135.204V142.575ZM135.204 136.589H134.649V133.597H135.204V136.589ZM135.204 130.604H134.649V127.612H135.204V130.604ZM135.204 124.619H134.649V121.626H135.204V124.619ZM135.204 118.596H134.649V115.604H135.204V118.596ZM135.204 112.611H134.649V109.619H135.204V112.611ZM135.204 106.626H134.649V103.633H135.204V106.626ZM135.204 100.641H134.649V97.6483H135.204V100.641ZM135.204 94.6557H134.649V91.6631H135.204V94.6557Z" fill="#414F6F"/>
<path d="M171.31 299.626H239.686C240.249 297.381 240.789 295.212 241.337 293.057C241.959 290.563 242.569 288.147 243.166 285.807C243.292 285.284 243.433 284.76 243.566 284.244C244.018 282.441 244.455 280.683 244.892 279.007C245.151 277.959 245.41 276.934 245.632 275.924C245.854 274.914 246.15 273.874 246.372 272.887C246.439 272.625 246.506 272.356 246.572 272.139C246.639 271.922 246.713 271.563 246.78 271.286L247.039 270.261C247.135 269.902 247.224 269.55 247.305 269.199C247.483 268.533 247.646 267.882 247.802 267.238C248.046 266.296 248.276 265.368 248.505 264.463C248.601 264.074 248.705 263.677 248.801 263.296C248.964 262.66 249.12 262.046 249.268 261.448C249.371 261.044 249.468 260.647 249.564 260.266C249.971 258.68 250.341 257.191 250.689 255.777C250.786 255.41 250.867 255.029 250.963 254.699C251.112 254.093 251.26 253.517 251.4 252.956C251.497 252.605 251.578 252.268 251.66 251.931C251.963 250.742 252.237 249.687 252.474 248.707C252.541 248.452 252.6 248.206 252.667 247.959L253.089 246.268C253.14 246.073 253.185 245.879 253.237 245.699C253.289 245.52 253.333 245.318 253.37 245.153C253.407 244.988 253.437 244.906 253.459 244.801C253.481 244.697 253.548 244.465 253.585 244.33C253.596 244.259 253.613 244.189 253.637 244.121L253.792 243.492H187.327C187.327 243.492 185.105 251.131 181.625 263.438C180.884 265.944 180.144 268.675 179.322 271.518C176.96 279.65 174.242 289.226 171.31 299.626Z" fill="#37474F"/>
<path d="M228.49 299.626H230.193C232.725 289.042 235.179 278.441 237.553 267.822C238.126 265.239 238.691 262.653 239.249 260.064L239.404 259.316C239.409 259.29 239.403 259.264 239.389 259.242C239.375 259.22 239.353 259.204 239.328 259.197C239.303 259.191 239.276 259.194 239.254 259.206C239.231 259.218 239.213 259.239 239.204 259.264L239.138 259.503C238.368 262.276 237.603 265.057 236.842 267.845C233.977 278.394 231.192 288.987 228.49 299.626Z" fill="#263238"/>
<path d="M189.452 243.425L192.414 258.283L194.798 270.448L198.9 291.209L199.322 293.341L200.026 296.887L200.551 299.573H239.693C240.249 297.329 240.797 295.152 241.337 293.005C241.959 290.511 242.569 288.094 243.166 285.755C243.292 285.231 243.433 284.708 243.566 284.191C244.018 282.388 244.454 280.63 244.891 278.954C245.151 277.907 245.41 276.882 245.632 275.872C245.854 274.862 246.15 273.822 246.372 272.834C246.439 272.573 246.506 272.303 246.572 272.086C246.639 271.869 246.713 271.51 246.78 271.233L247.039 270.208C247.135 269.849 247.224 269.498 247.305 269.146C247.483 268.48 247.646 267.829 247.801 267.186C248.046 266.243 248.275 265.316 248.505 264.41C248.609 264.014 248.705 263.625 248.801 263.243C248.964 262.607 249.12 261.994 249.268 261.395C249.371 260.991 249.468 260.595 249.564 260.213C249.971 258.627 250.341 257.138 250.689 255.724C250.786 255.358 250.867 254.976 250.963 254.647C251.111 254.041 251.259 253.465 251.4 252.904C251.496 252.552 251.578 252.216 251.659 251.879C251.963 250.689 252.237 249.634 252.474 248.654C252.541 248.4 252.6 248.153 252.666 247.906L253.088 246.215C253.14 246.021 253.185 245.826 253.237 245.647C253.288 245.467 253.333 245.265 253.37 245.101C253.407 244.936 253.437 244.854 253.459 244.749C253.481 244.644 253.548 244.412 253.585 244.278C253.596 244.206 253.613 244.136 253.636 244.068L253.792 243.44L189.452 243.425Z" fill="#263238"/>
<path d="M189.444 243.402C189.444 243.777 189.726 247.787 190.363 253.877C190.548 255.665 190.762 257.617 191.014 259.727C191.407 263.049 191.888 266.707 192.495 270.575C193.517 277.309 194.85 284.685 196.583 291.882C197.197 294.471 197.878 297.037 198.597 299.551H284.492C283.478 286.324 282.552 274.361 281.819 264.934C280.782 251.662 280.131 243.35 280.131 243.35H202.203L189.444 243.402Z" fill="#37474F"/>
<path d="M189.629 251.378C189.726 254.483 189.852 257.588 190.051 260.678C190.259 264.029 190.562 267.374 190.999 270.718C191.007 270.841 191.022 270.963 191.044 271.084C191.453 274.217 191.917 277.341 192.436 280.459C192.932 283.361 193.295 286.496 194.568 289.19C195.051 290.228 195.733 291.158 196.575 291.928C197.351 292.64 198.298 293.136 199.322 293.364C199.49 293.407 199.661 293.434 199.833 293.446C199.878 293.446 199.929 293.446 199.981 293.446C199.949 293.463 199.923 293.489 199.905 293.521C199.888 293.553 199.881 293.59 199.885 293.626C199.922 294.666 199.885 295.728 200.011 296.761C200.011 296.806 200.011 296.851 200.011 296.895C200.115 297.793 200.277 298.684 200.44 299.581H201.921C201.921 299.581 201.921 299.581 201.921 299.529C201.662 298.549 201.447 297.561 201.181 296.536C200.914 295.511 200.589 294.546 200.359 293.544C200.348 293.503 200.321 293.468 200.285 293.446C201.222 293.494 202.15 293.25 202.945 292.747C203.739 292.243 204.362 291.506 204.728 290.633C205.1 289.304 205.126 287.899 204.802 286.556L204.002 281.222C203.499 277.96 202.854 274.728 202.277 271.496C202.195 271.002 202.106 270.508 202.018 270C200.87 263.393 199.663 256.78 198.219 250.233C198.167 249.964 198.1 249.695 198.041 249.418C197.982 249.141 197.715 249.291 197.73 249.463C197.775 249.904 197.819 250.346 197.871 250.787C198.123 253.301 198.419 255.8 198.76 258.269C199.174 261.201 199.463 264.149 199.87 267.082L200.292 270.074C200.959 274.9 201.655 279.725 202.469 284.529C202.854 286.773 204.232 290.761 201.048 291.456C200.319 291.62 199.557 291.522 198.893 291.18C197.49 290.336 196.437 289.007 195.931 287.439C195.027 284.88 194.709 282.067 194.243 279.404C193.714 276.466 193.25 273.521 192.85 270.568C192.332 266.887 191.799 263.206 191.221 259.533C190.94 257.655 190.644 255.792 190.348 253.907C190.214 253.047 190.074 252.179 189.933 251.311C189.911 251.139 189.629 251.191 189.629 251.378Z" fill="#263238"/>
<path d="M265.647 274.451C262.07 274.415 258.511 273.933 255.051 273.014C253.451 272.595 251.874 272.079 250.312 271.563C248.759 271.126 247.306 270.389 246.032 269.393C243.625 267.291 242.5 263.984 241.455 261.051C240.313 257.742 239.385 254.361 238.679 250.929C238.642 250.757 238.397 250.809 238.39 250.974C238.322 254.859 238.821 258.734 239.871 262.473C240.737 265.645 241.9 269.206 244.44 271.451C247.105 273.785 250.734 274.608 254.147 275.034C257.988 275.487 261.871 275.434 265.699 274.877C265.726 274.874 265.753 274.865 265.778 274.851C265.802 274.837 265.823 274.818 265.84 274.796C265.858 274.774 265.87 274.748 265.878 274.721C265.885 274.694 265.887 274.666 265.884 274.638C265.88 274.61 265.872 274.583 265.858 274.558C265.844 274.534 265.826 274.512 265.804 274.495C265.782 274.477 265.757 274.464 265.73 274.457C265.703 274.449 265.675 274.447 265.647 274.451Z" fill="#263238"/>
<path d="M271.601 250.996C271.793 255.859 271.996 260.722 272.208 265.585C272.701 276.912 273.242 288.239 273.829 299.566H275.444C274.703 288.209 273.926 276.865 273.111 265.533C272.756 260.675 272.39 255.827 272.015 250.989C272.014 250.933 271.992 250.88 271.952 250.842C271.912 250.803 271.859 250.782 271.804 250.783C271.749 250.784 271.697 250.807 271.659 250.847C271.621 250.887 271.6 250.941 271.601 250.996Z" fill="#263238"/>
<path d="M198.982 143.383C165.142 174.199 133.768 207.948 131.309 225.17C127.911 249.021 142.417 255.642 148.933 255.702C166.645 255.882 198.834 183.356 210.03 155.667C220.9 128.779 206.416 136.612 198.982 143.383Z" fill="#D3766A"/>
<path d="M147.904 192.701L185.535 213.365C185.535 213.365 208.927 169.703 214.317 149.466C219.708 129.228 211.659 129.797 193.991 145.553C176.323 161.309 147.904 192.701 147.904 192.701Z" fill="#C7C7C7"/>
<path d="M147.904 192.701L185.535 213.365C185.535 213.365 208.927 169.703 214.317 149.466C219.708 129.228 211.659 129.797 193.991 145.553C176.323 161.309 147.904 192.701 147.904 192.701Z" fill="#414F6F"/>
<path opacity="0.1" d="M214.317 149.458C208.927 169.702 185.528 213.372 185.528 213.372L151.266 194.548L214.369 134.622C216.472 136.253 216.561 141.063 214.317 149.458Z" fill="black"/>
<path d="M155.649 186.872C170.155 196.793 184.216 203.234 187.038 204.873C187.171 204.955 187.282 204.731 187.141 204.656C184.291 203.197 168.852 193.486 155.76 186.633C155.612 186.551 155.486 186.775 155.649 186.872Z" fill="#263238"/>
<path d="M177.049 270.381L287.239 270.702C287.239 270.702 277.613 186.91 237.168 137.45C227.809 125.996 212.732 132.213 206.372 138.303C190.229 153.737 176.738 269.977 177.049 270.381Z" fill="#414F6F"/>
<path d="M214.954 132.894C217.598 134.846 220.137 137.001 222.677 138.998L230.082 144.797C232.303 146.555 234.525 148.537 237.05 149.921C239.323 151.178 241.967 151.739 244.403 150.617C244.998 150.338 245.558 149.986 246.069 149.57L246.321 149.966C245.08 151.009 243.547 151.632 241.937 151.747C239.501 151.889 237.228 150.767 235.273 149.42C232.8 147.729 230.497 145.777 228.135 143.929C223.551 140.345 219.027 136.604 214.317 133.178C214.502 133.081 214.724 132.983 214.954 132.894ZM258.901 199.546C262.8 199.522 266.693 199.87 270.527 200.586C270.438 200.324 270.342 200.055 270.238 199.793C266.869 199.17 263.452 198.847 260.027 198.828C250.053 198.641 236.709 199.269 230.682 189.394C228.305 185.503 227.535 180.334 230.149 176.346C232.452 172.83 236.754 171.311 240.789 171.348C242.894 171.361 244.977 171.778 246.928 172.575C249.232 173.637 251.358 175.055 253.229 176.78C256.813 179.862 260.153 183.476 264.64 185.189L264.285 184.321C262.949 183.741 261.682 183.011 260.508 182.144C256.339 179.099 252.97 174.88 248.335 172.5C244.786 170.692 240.72 170.202 236.85 171.116C233.148 172.022 229.852 174.453 228.483 178.156C226.957 182.286 228.149 187.015 230.586 190.538C236.85 199.568 249.179 199.419 258.901 199.546ZM241.989 161.046C244.904 159.635 247.919 158.442 251.008 157.478C250.875 157.261 250.741 157.029 250.601 156.812C243.492 158.824 236.924 163.366 229.593 164.637C220.698 166.062 211.593 164.166 203.98 159.303C201.894 157.985 199.949 156.453 198.175 154.732C198.086 154.971 198.004 155.211 197.923 155.48C199.618 157.09 201.457 158.538 203.417 159.804C210.769 164.563 219.518 166.618 228.194 165.625C233.059 164.959 237.531 163.081 241.989 161.046ZM248.653 240.537C254.087 242.521 259.639 244.155 265.277 245.43C271.527 246.926 279.257 248.183 284.307 252.455C284.241 252.088 284.167 251.707 284.093 251.355C279.05 247.472 271.815 246.23 265.795 244.809C260.141 243.523 254.569 241.889 249.112 239.916C244.425 238.173 239.79 235.831 236.361 232.053C234.883 230.454 233.742 228.569 233.006 226.512C232.27 224.454 231.956 222.267 232.081 220.083C232.37 215.669 234.858 211.651 239.16 210.274C243.773 208.778 248.92 210.536 252.77 213.192C257.169 216.237 260.331 220.808 263.715 224.878C266.921 228.761 270.475 232.36 275.162 234.32C276.921 235.073 278.794 235.516 280.701 235.629C280.649 235.412 280.605 235.18 280.546 234.956C276.806 234.716 273.141 232.861 270.238 230.587C265.966 227.25 262.9 222.604 259.383 218.519C256.162 214.778 252.474 211.457 247.72 209.9C243.603 208.554 238.872 208.688 235.391 211.554C232.355 214.068 231.148 218.138 231.356 221.99C231.608 226.204 233.384 230.176 236.346 233.153C239.738 236.617 244.166 238.846 248.646 240.522L248.653 240.537ZM235.258 259.592C234.473 263.206 234.843 266.902 234.629 270.553H235.31C235.569 266.064 234.866 261.373 236.709 257.146C237.149 256.065 237.816 255.093 238.664 254.298C239.511 253.502 240.519 252.901 241.619 252.537C244.08 251.897 246.689 252.192 248.949 253.368C253.733 255.732 256.288 260.849 258.613 265.398C259.516 267.141 260.442 268.944 261.508 270.635H262.308C259.672 266.595 257.991 261.986 255.147 258.066C252.4 254.325 248.268 251.228 243.418 251.557C238.923 251.864 236.154 255.395 235.251 259.592H235.258ZM192.058 270.448H192.932C193.918 268.693 194.623 266.792 195.02 264.814C196.087 259.847 195.761 254.707 195.42 249.679C194.606 238.031 192.614 226.135 195.139 214.561C196.104 209.821 197.932 205.303 200.529 201.237C203.254 197.122 207.194 193.254 211.955 191.683C213.208 191.213 214.541 191.003 215.876 191.066C217.211 191.129 218.519 191.464 219.723 192.05C221.751 193.203 223.356 194.987 224.299 197.137C226.705 202.314 225.217 208.172 222.922 213.095C218.427 222.701 211.133 230.796 207.512 240.866C205.911 245.363 205.241 250.145 205.544 254.914C205.847 259.684 207.117 264.339 209.275 268.593C209.6 269.228 209.941 269.857 210.304 270.478H211.111C209.33 267.522 208.002 264.311 207.172 260.954C205.958 256.177 205.801 251.188 206.712 246.343C207.72 241.106 210.022 236.295 212.636 231.746C215.25 227.198 218.368 222.769 221.026 218.123C223.684 213.477 226.261 208.262 226.209 202.718C226.157 198.439 224.188 193.905 220.441 191.668C215.998 189.005 210.674 190.815 206.787 193.613C199.137 199.127 195.257 208.382 193.836 217.509C191.984 229.42 194.302 241.45 194.857 253.375C195.087 258.133 195.072 263.049 193.421 267.59C193.072 268.59 192.615 269.549 192.058 270.448ZM203.106 169.897C200.728 167.861 197.742 166.692 194.628 166.575C194.576 166.77 194.524 166.979 194.465 167.174C195.211 167.21 195.954 167.303 196.686 167.45C201.233 168.363 205.839 171.939 205.891 176.989C205.957 182.488 201.337 186.573 196.864 188.848C194.243 190.179 191.496 191.212 188.808 192.356C188.763 192.596 188.711 192.828 188.667 193.104C190.37 192.356 192.103 191.713 193.85 190.995C198.478 189.079 203.143 186.506 205.446 181.792C206.464 179.835 206.787 177.584 206.361 175.416C205.936 173.247 204.787 171.291 203.106 169.874V169.897Z" fill="white"/>
<path d="M244.906 141.191C276.999 166.081 310.461 208.352 310.987 232.726C311.483 256.817 298.087 254.423 295.836 253.675C271.993 246.193 243.262 179.346 232.614 152.136C222.04 125.15 236.939 135.033 244.906 141.191Z" fill="#D3766A"/>
<path d="M296.466 189.746L259.205 211.09C259.205 211.09 235.036 167.855 229.29 147.715C223.544 127.574 231.608 128.016 249.586 143.435C267.565 158.855 296.466 189.746 296.466 189.746Z" fill="#414F6F"/>
<path d="M288.617 184.059C274.281 194.234 260.338 200.938 257.516 202.621C257.383 202.703 257.272 202.479 257.405 202.404C260.227 200.908 275.495 190.905 288.461 183.82C288.646 183.738 288.772 183.962 288.617 184.059Z" fill="#263238"/>
<path d="M261.596 209.616C260.838 209.912 260.097 210.249 259.375 210.626C255.799 203.436 256.45 205.082 252.8 197.908C251.018 194.416 249.23 190.907 247.439 187.381C245.587 183.73 243.929 179.9 241.885 176.383C241.874 176.362 241.855 176.345 241.832 176.337C241.809 176.33 241.784 176.331 241.763 176.342C241.741 176.353 241.725 176.372 241.717 176.395C241.709 176.419 241.711 176.444 241.722 176.466C242.907 179.922 244.514 183.274 246.032 186.611C245.698 186.094 245.38 185.563 245.01 185.062C244.188 183.947 243.381 182.817 242.655 181.65C242.537 181.471 242.24 181.613 242.351 181.8C243.092 182.922 243.669 184.082 244.284 185.264C244.899 186.446 245.573 187.561 246.261 188.698C246.95 189.835 247.668 190.823 248.409 191.863L248.675 192.252C249.653 194.339 250.6 196.434 251.637 198.499C255.221 205.733 258.909 211.427 259.042 211.389C259.984 210.935 260.887 210.405 261.745 209.803C261.804 209.743 261.7 209.609 261.596 209.616Z" fill="#263238"/>
<path d="M150.569 254.857C161.617 253.226 167.874 232.495 180.137 199.494C182.284 193.703 153.768 160.538 149.896 165.872C145.016 172.605 132.124 209.856 130.806 219.986C128.266 239.946 137.715 256.765 150.569 254.857Z" fill="#D3766A"/>
<path d="M167.563 232.883C168.556 230.078 169.607 227.295 170.666 224.512L173.872 216.185C174.983 213.424 176.049 210.648 177.123 207.88C177.671 206.494 178.199 205.105 178.708 203.713C179.233 202.322 179.744 200.923 180.137 199.486C179.523 202.407 178.693 205.278 177.656 208.075C176.686 210.895 175.612 213.678 174.561 216.462C173.51 219.245 172.34 221.99 171.184 224.729C170.029 227.467 168.815 230.198 167.563 232.883Z" fill="#263238"/>
<path d="M139.662 189.79C141.209 178.463 144.371 162.663 148.377 159.348C152.583 155.877 167.859 144.258 172.265 142.717C176.671 141.176 196.338 133.612 199.951 135.722C202.847 137.413 199.418 145.096 190.066 148.784C181.839 152.016 177.604 155.039 175.256 156.064C172.909 157.089 167.111 164.959 168.666 168.431C169.592 170.473 175.486 172.875 179.151 171.199C182.817 169.523 183.72 162.221 187.904 158.742C192.088 155.263 199.478 155.705 199.907 157.717C200.336 159.73 197.893 160.673 194.116 167.526C191.688 171.925 191.525 182.489 186.016 190.075C183.246 193.883 178.441 204.013 178.441 204.013L139.662 189.79Z" fill="#D3766A"/>
<path d="M191.814 155.615C193.166 155.418 194.434 154.837 195.472 153.939C195.89 153.534 196.18 153.014 196.309 152.443C196.357 152.131 196.357 151.813 196.309 151.5C196.298 151.166 196.172 150.846 195.953 150.595C195.879 150.543 195.99 150.453 196.027 150.528C196.127 150.685 196.239 150.835 196.36 150.976C196.447 151.111 196.519 151.254 196.575 151.403C196.686 151.699 196.739 152.014 196.731 152.331C196.701 153.023 196.44 153.685 195.99 154.208C195.45 154.767 194.789 155.193 194.06 155.453C193.331 155.712 192.552 155.798 191.784 155.705C191.769 155.727 191.769 155.63 191.814 155.615Z" fill="#263238"/>
<path d="M148.377 159.348C151.939 153.699 161.054 143.495 170.088 139.993C176.189 137.622 197.204 147.946 196.597 152.001C195.99 156.056 192.398 156.079 187.082 155.443C185.149 155.211 174.908 151.5 173.161 153.67C170.658 156.797 167.474 167.458 167.474 167.458L148.377 159.348Z" fill="#D3766A"/>
<path d="M196.072 150.415C193.473 146.076 187.771 143.764 182.092 141.939C182.003 141.939 181.951 142.043 182.04 142.073C183.484 142.537 192.74 146.832 196.013 150.49C196.05 150.527 196.101 150.46 196.072 150.415Z" fill="#263238"/>
<path d="M148.377 159.348C151.939 153.7 161.054 143.495 170.088 139.994C176.189 137.622 192.821 150.834 192.206 154.897C191.591 158.959 186.445 159.281 180.743 157.283C178.9 156.632 172.724 152.248 170.976 154.418C168.474 157.538 162.365 165.289 162.365 165.289L148.377 159.348Z" fill="#D3766A"/>
<path d="M165.853 160.47C166.43 159.58 166.593 159.266 167.208 158.383C167.822 157.5 168.392 156.632 169.044 155.802C169.55 155.028 170.187 154.349 170.925 153.797C171.688 153.357 172.571 153.179 173.442 153.288C175.42 153.475 177.204 154.739 178.885 155.712C180.758 156.797 184.639 158.555 187.615 158.233C188.433 158.185 189.233 157.966 189.963 157.59C190.515 157.334 190.996 156.943 191.362 156.453C192.65 154.208 191.036 151.724 189.392 149.936C186.319 146.607 182.188 144.198 178.182 142.215C177.197 141.729 176.204 141.273 175.22 140.809C174.104 140.207 172.875 139.852 171.613 139.769C169.548 139.769 166.164 141.879 165.119 142.522C165.038 142.567 164.979 142.44 165.053 142.387C166.326 141.587 169.496 138.983 172.798 139.148C174.015 139.334 175.191 139.734 176.271 140.33C177.434 140.831 178.581 141.377 179.714 141.946C181.925 143.044 184.049 144.312 186.068 145.739C187.963 147.108 189.985 148.732 191.251 150.699C191.841 151.57 192.188 152.587 192.253 153.64C192.318 154.694 192.1 155.746 191.621 156.684C190.71 158.181 188.763 158.585 187.874 158.704C187.002 158.82 186.118 158.82 185.246 158.704C183.303 158.281 181.393 157.718 179.529 157.021C177.722 156.273 176.093 155.061 174.235 154.492C173.796 154.34 173.331 154.279 172.868 154.311C172.406 154.343 171.954 154.468 171.539 154.679C170.78 155.192 170.101 155.818 169.525 156.535C168.282 157.77 167.157 159.12 166.164 160.567C165.919 160.986 165.645 160.859 165.853 160.47Z" fill="#263238"/>
<path d="M145.741 164.286C147.044 161.593 149.244 150.506 151.361 147.079C153.479 143.652 163.135 131.914 167.652 132.423C173.331 133.059 167.422 143.391 164.453 147.648C161.484 151.905 161.995 159.139 161.995 159.139L145.741 164.286Z" fill="#D3766A"/>
<path d="M168.593 140.622C167.534 141.969 166.601 143.465 165.683 144.909C164.738 146.251 163.891 147.661 163.15 149.129C162.529 150.63 162.156 152.225 162.047 153.849C161.973 154.65 161.951 155.443 161.943 156.243C161.936 157.044 162.017 158.002 162.003 158.869C161.999 158.881 161.998 158.893 162 158.904C162.002 158.916 162.006 158.927 162.013 158.937C162.02 158.946 162.029 158.954 162.039 158.959C162.05 158.965 162.061 158.968 162.073 158.968C162.085 158.968 162.096 158.965 162.107 158.959C162.117 158.954 162.126 158.946 162.133 158.937C162.14 158.927 162.144 158.916 162.146 158.904C162.148 158.893 162.147 158.881 162.143 158.869C162.244 157.274 162.449 155.687 162.758 154.119C163.034 152.487 163.509 150.896 164.172 149.383C165.498 146.39 167.438 143.697 168.785 140.712C168.815 140.6 168.667 140.525 168.593 140.622Z" fill="#263238"/>
<path d="M162.061 160.38C162.144 161.723 162.421 163.046 162.883 164.308C163.304 165.59 163.814 166.84 164.409 168.049C164.984 169.256 165.624 170.43 166.327 171.565C167.008 172.71 167.808 173.742 168.644 174.835C170.346 176.967 171.703 179.358 172.665 181.92C173.566 184.482 174.017 187.183 173.998 189.902C173.752 187.223 173.128 184.593 172.147 182.092C171.094 179.633 169.716 177.331 168.052 175.246C167.205 174.186 166.424 173.074 165.712 171.917C165.016 170.745 164.398 169.528 163.861 168.273C162.839 165.782 161.891 163.119 162.061 160.38Z" fill="#263238"/>
<path d="M202.573 144.55C202.733 146.307 202.98 148.055 203.313 149.787C203.576 151.364 203.98 152.914 204.52 154.418C205.579 157.119 207.601 159.655 210.718 160.351C212.168 160.632 213.659 160.616 215.103 160.303C216.547 159.991 217.914 159.389 219.123 158.533C221.707 156.812 223.721 154.373 225.565 152.001C226.715 150.535 227.794 149.024 228.801 147.468C229.304 146.675 229.823 145.897 230.282 145.081C230.741 144.266 231.178 143.443 231.696 142.665C231.74 142.597 231.874 142.665 231.837 142.717C230.83 144.557 227.808 150.393 226.801 151.837C224.958 154.47 222.951 157.156 220.278 159.101C217.717 161.07 214.498 161.955 211.303 161.57C209.772 161.328 208.327 160.694 207.106 159.729C205.885 158.764 204.929 157.5 204.328 156.056C203.62 154.332 203.169 152.512 202.988 150.655C202.736 148.62 202.603 146.57 202.514 144.527C202.528 144.527 202.573 144.527 202.573 144.55Z" fill="#263238"/>
<path d="M213.244 155.271C220.041 155.084 228.423 142.283 230.66 133.133C230.808 132.505 222.796 111.205 221.641 106.813C221.389 105.916 196.116 120.819 196.116 120.819C196.116 120.819 201.218 129.295 203.18 136.956C203.336 137.6 206.668 155.45 213.244 155.271Z" fill="#D3766A"/>
<path d="M196.116 120.818C196.116 120.818 201.218 129.295 203.18 136.964C203.18 137.113 203.432 138.228 203.825 139.844C216.465 135.153 222.603 124.881 225.417 117.976C223.692 113.142 222.1 108.601 221.641 106.828C221.389 105.915 196.116 120.818 196.116 120.818Z" fill="#263238"/>
<path d="M181.603 71.1792C179.981 71.456 174.538 84.5187 175.331 90.2345C176.123 95.9504 179.818 107.023 181.506 106.971C183.195 106.918 182.884 70.9622 181.603 71.1792Z" fill="#263238"/>
<path d="M220.493 76.2438C226.076 85.1692 228.601 114.706 223.455 122.876C215.968 134.719 199.907 140.083 188.985 130.14C178.389 120.489 175.768 81.9372 181.892 74.1191C190.896 62.6051 212.244 63.0615 220.493 76.2438Z" fill="#D3766A"/>
<path d="M199.485 95.1047C200.347 95.2268 201.215 95.3042 202.084 95.3366C203.084 95.4114 203.876 95.5835 204.787 95.0673C205.028 94.8911 205.206 94.6396 205.291 94.3516C205.377 94.0636 205.366 93.7551 205.261 93.4737C204.743 92.2991 203.543 91.8951 202.344 91.753C201.141 91.5623 199.912 91.8289 198.893 92.5011C198.665 92.6684 198.49 92.8998 198.392 93.1665C198.293 93.4332 198.274 93.7233 198.337 94.0009C198.4 94.2784 198.543 94.531 198.747 94.7273C198.951 94.9236 199.208 95.0548 199.485 95.1047Z" fill="#263238"/>
<path d="M200.655 101.553C200.655 101.471 200.818 101.628 200.826 101.711C200.966 103.708 201.462 105.968 203.306 106.446C203.365 106.446 203.373 106.559 203.306 106.559C201.07 106.476 200.441 103.461 200.655 101.553Z" fill="#263238"/>
<path d="M202.173 99.294C205.32 98.7179 206.216 105.115 203.306 105.638C200.396 106.162 199.545 99.7728 202.173 99.294Z" fill="#263238"/>
<path d="M189.311 102.863C189.311 102.788 189.17 102.982 189.185 103.057C189.526 105.032 189.585 107.344 187.904 108.257C187.852 108.257 187.904 108.384 187.904 108.369C190.059 107.778 189.94 104.703 189.311 102.863Z" fill="#263238"/>
<path d="M187.267 101.075C184.083 101.292 184.735 107.711 187.682 107.516C190.629 107.322 189.94 100.903 187.267 101.075Z" fill="#263238"/>
<path d="M184.365 97.671C185.189 97.3737 185.997 97.0341 186.786 96.6535C187.712 96.2495 188.489 96.025 189.06 95.1572C189.192 94.8873 189.234 94.5809 189.178 94.2849C189.122 93.989 188.971 93.7198 188.749 93.5187C187.749 92.7182 186.49 92.9277 185.357 93.3616C184.201 93.7653 183.235 94.5894 182.647 95.6734C182.531 95.9272 182.49 96.2093 182.53 96.486C182.569 96.7626 182.686 97.0219 182.867 97.2329C183.049 97.4438 183.287 97.5974 183.552 97.6751C183.818 97.7528 184.1 97.7513 184.365 97.671Z" fill="#263238"/>
<path d="M204.698 117.744C204.298 118.275 203.958 118.978 203.217 119.143C202.486 119.235 201.744 119.169 201.04 118.948C201.033 118.943 201.025 118.94 201.016 118.938C201.008 118.936 200.999 118.937 200.99 118.938C200.982 118.94 200.973 118.943 200.966 118.948C200.959 118.953 200.953 118.96 200.948 118.967C200.943 118.974 200.939 118.983 200.938 118.991C200.936 119 200.936 119.009 200.938 119.018C200.94 119.026 200.943 119.035 200.948 119.042C200.953 119.049 200.959 119.056 200.966 119.06C201.298 119.416 201.72 119.673 202.185 119.805C202.651 119.937 203.143 119.938 203.61 119.809C203.994 119.646 204.322 119.373 204.552 119.023C204.783 118.673 204.906 118.262 204.906 117.841C204.913 117.691 204.757 117.669 204.698 117.744Z" fill="#263238"/>
<path d="M201.81 112.11C201.422 112.966 200.864 113.732 200.169 114.359C199.475 114.986 198.659 115.461 197.774 115.754C197.005 116.019 196.202 116.173 195.39 116.21C195.235 116.225 195.079 116.225 194.924 116.21C194.778 116.218 194.632 116.218 194.487 116.21C194.379 116.205 194.275 116.164 194.192 116.094C194.11 116.024 194.052 115.928 194.028 115.821C194.02 115.754 194.02 115.686 194.028 115.619V115.447C193.768 113.951 193.591 111.587 193.591 111.587C193.08 111.946 190.444 113.622 190.377 112.821C189.844 106.17 189.244 98.7785 190.096 92.0527C190.104 92.0104 190.127 91.9724 190.16 91.945C190.193 91.9177 190.234 91.9028 190.277 91.9028C190.32 91.9028 190.361 91.9177 190.394 91.945C190.427 91.9724 190.45 92.0104 190.459 92.0527C191.199 98.4269 190.881 104.891 191.554 111.295C192.488 110.682 193.502 110.206 194.568 109.881C194.79 109.881 194.835 114.37 195.005 115.081C195 115.103 195 115.126 195.005 115.148C197.582 115.148 199.389 114.063 201.603 111.991C201.729 111.841 201.899 111.938 201.81 112.11Z" fill="#263238"/>
<path d="M223.921 101.598C218.826 102.758 215.524 97.3041 212.68 89.441C211.014 84.8399 211.007 75.2262 211.007 75.2262C211.007 75.2262 198.656 83.2464 191.095 83.5905C183.535 83.9347 176.286 78.3011 175.842 72.3683C175.464 67.2435 183.069 59.4927 194.161 57.5026C201.899 56.1185 215.879 60.6448 222.803 68.3133C222.803 68.3133 233.221 71.7174 232.755 79.3859C232.288 87.0544 229.704 100.282 223.921 101.598Z" fill="#263238"/>
<path d="M223.477 101.053C216.879 103.424 211.918 93.5712 211.037 88.222C210.119 82.6483 211.496 76.7005 211.733 71.1118H211.688C210.267 78.0471 208.889 86.7631 212.044 93.3842C214.028 97.5588 218.153 104.345 223.61 101.419C223.795 101.315 223.684 100.978 223.477 101.053Z" fill="#263238"/>
<path d="M233.977 76.9025C232.415 72.4136 226.617 68.5905 222.129 68.1042C222.085 68.1042 222.07 68.1716 222.129 68.1791C227.594 69.3911 234.436 74.6505 233.599 80.7779C232.926 85.6708 231.504 92.1871 228.816 96.3618C228.749 96.4665 228.905 96.5638 228.979 96.4665C231.156 93.6011 231.815 90.1522 232.681 86.7406C233.4 83.7256 235.029 80.0073 233.977 76.9025Z" fill="#263238"/>
<path d="M223.884 68.8521C216.568 60.7721 201.959 52.4527 191 56.7171C191 56.7171 191 56.7844 191 56.7695C202.773 53.2906 214.991 62.1561 223.514 69.2785C223.781 69.488 224.092 69.0765 223.884 68.8521Z" fill="#263238"/>
<path d="M220.648 102.354C220.648 102.354 224.61 91.5582 229.304 92.7478C233.999 93.9374 232.666 108.459 228.319 111.504C227.789 111.938 227.177 112.259 226.521 112.448C225.865 112.637 225.178 112.69 224.501 112.604C223.824 112.518 223.171 112.295 222.581 111.948C221.992 111.601 221.478 111.137 221.07 110.584L220.648 102.354Z" fill="#D3766A"/>
<path d="M228.846 96.8774C228.927 96.8774 228.964 96.9523 228.905 97.0046C225.891 99.2491 224.928 102.908 224.536 106.514C225.21 105.017 226.402 103.932 228.387 104.696C228.49 104.733 228.446 104.898 228.342 104.898C227.699 104.864 227.062 105.033 226.517 105.38C225.972 105.726 225.547 106.235 225.299 106.835C224.898 107.844 224.602 108.892 224.418 109.963C224.336 110.314 223.751 110.292 223.773 109.91C223.77 109.883 223.77 109.855 223.773 109.828C222.566 105.519 224.351 98.5533 228.846 96.8774Z" fill="#263238"/>
<path d="M207.105 150.258L222.655 197.1C223.262 198.462 222.655 199.651 221.292 199.756L196.886 201.619C196.141 201.623 195.41 201.415 194.777 201.017C194.145 200.62 193.636 200.051 193.309 199.374L177.759 152.533C177.152 151.164 177.759 149.974 179.122 149.869L203.513 147.977C204.264 147.975 205 148.188 205.636 148.592C206.272 148.996 206.781 149.574 207.105 150.258Z" fill="#37474F"/>
<path d="M204.202 150.453L219.752 197.294C220.359 198.656 219.752 199.853 218.389 199.958L193.991 201.85C193.242 201.849 192.509 201.635 191.876 201.231C191.244 200.827 190.737 200.251 190.414 199.568L174.864 152.727C174.249 151.365 174.864 150.176 176.227 150.071L200.655 148.178C201.398 148.182 202.125 148.398 202.752 148.8C203.379 149.202 203.882 149.775 204.202 150.453Z" fill="#455A64"/>
<path d="M197.693 153.153C197.734 153.567 197.894 153.96 198.155 154.282C198.416 154.603 198.766 154.839 199.16 154.96C199.553 155.081 199.974 155.081 200.368 154.961C200.762 154.84 201.111 154.604 201.373 154.283C201.634 153.961 201.795 153.569 201.835 153.155C201.875 152.741 201.793 152.324 201.599 151.957C201.405 151.591 201.108 151.29 200.745 151.094C200.382 150.898 199.969 150.816 199.559 150.857C199.011 150.912 198.506 151.184 198.156 151.615C197.806 152.046 197.64 152.599 197.693 153.153Z" fill="#263238"/>
<path d="M300.872 253.989C290.253 255.552 276.851 247.33 242.122 222.312C237.309 218.826 252.37 177.999 257.672 181.418C264.374 185.735 289.454 203.975 291.12 205.546C305.211 218.826 308.091 252.866 300.872 253.989Z" fill="#D3766A"/>
<path d="M270.135 193.591C270.135 193.591 260.168 179.795 252.711 174.177C242.722 166.695 231.037 164.331 226.054 163.65C215.687 162.229 189.77 166.022 189.511 173.773C189.304 180.79 215.665 175.553 215.665 175.553C215.665 175.553 187.919 176.406 189.208 184.898C190.496 193.389 220.767 185.564 220.767 185.564C220.767 185.564 192.273 187.06 194.976 195.634C197.02 202.09 224.825 196.554 224.825 196.554C224.825 196.554 200.344 198.05 202.159 204.783C204.173 212.22 230.149 208.741 230.149 208.741C237.679 225.051 247.824 229.742 255.451 232.203C257.295 232.794 270.135 193.591 270.135 193.591Z" fill="#D3766A"/>
<path d="M225.277 174.64C222.011 174.64 218.708 174.581 215.458 174.85C212.207 175.119 208.956 175.516 205.743 176.092C197.857 177.513 193.155 179.653 193.451 179.548C200.678 177.192 212.303 176.025 215.561 175.748C218.82 175.471 222.041 175.037 225.291 174.76C225.373 174.753 225.351 174.64 225.277 174.64Z" fill="#263238"/>
<path d="M226.468 186.491C222.299 186.648 218.16 186.648 213.999 186.992C209.837 187.336 205.957 188.032 201.847 188.66C201.529 188.705 201.662 188.862 201.981 188.825C206.105 188.361 209.963 188.256 214.095 187.845C218.227 187.433 222.351 186.85 226.483 186.588C226.572 186.588 226.572 186.491 226.468 186.491Z" fill="#263238"/>
<path d="M229.304 196.479C222.921 196.389 216.531 197.489 210.289 198.723C209.978 198.783 210.17 198.97 210.489 198.925C216.797 198.057 221.736 197.332 229.304 196.681C229.415 196.688 229.437 196.479 229.304 196.479Z" fill="#263238"/>
<path d="M281.553 198.349C284.307 200.182 286.958 202.165 289.528 204.267C290.817 205.308 292.052 206.414 293.23 207.581C294.45 208.742 295.522 210.051 296.422 211.479C298.131 214.353 299.567 217.384 300.709 220.532C301.894 223.653 302.734 226.897 303.212 230.205C302.857 228.583 302.412 226.982 301.879 225.41C301.368 223.831 300.805 222.275 300.176 220.741C298.972 217.665 297.505 214.702 295.792 211.883C294.947 210.484 293.927 209.202 292.756 208.068C291.608 206.893 290.372 205.823 289.143 204.701C287.913 203.579 286.64 202.546 285.366 201.491C284.093 200.436 282.849 199.374 281.553 198.349Z" fill="#263238"/>
<path d="M176.419 51.7121C176.419 51.7121 173.375 76.3261 168.37 81.8699C162.364 88.5135 158.003 87.5409 155.582 90.9674C153.153 87.5334 148.799 88.5135 142.786 81.8624C137.788 76.3261 134.752 51.7121 134.752 51.7121C147.932 45.2481 155.589 37.9985 155.589 37.9985C155.819 38.2305 163.438 45.3453 176.419 51.7121Z" fill="#414F6F"/>
<path opacity="0.2" d="M155.582 38.006V90.9674C153.153 87.5334 148.799 88.5135 142.786 81.8624C137.788 76.3261 134.752 51.7121 134.752 51.7121C147.932 45.2481 155.589 37.9985 155.589 37.9985L155.582 38.006Z" fill="black"/>
<path opacity="0.1" d="M176.419 51.7122C176.419 51.7122 173.376 76.3262 168.37 81.87C162.365 88.5136 158.003 87.541 155.582 90.9675V38.0061C155.819 38.2305 163.439 45.3454 176.419 51.7122Z" fill="black"/>
<path d="M173.183 53.6946C173.183 53.6946 170.613 74.4931 166.385 79.169C161.313 84.7951 157.625 83.9647 155.582 86.86C153.531 83.9647 149.85 84.7951 144.771 79.169C140.543 74.4931 137.98 53.6946 137.98 53.6946C149.088 48.2331 155.582 42.1133 155.582 42.1133C155.582 42.1133 162.046 48.2481 173.183 53.6946Z" fill="#414F6F"/>
<path opacity="0.1" d="M155.582 42.1209V86.8602C153.538 83.9648 149.851 84.7878 144.778 79.1692C140.55 74.4858 137.988 53.6873 137.988 53.6873C149.095 48.2258 155.582 42.106 155.582 42.106V42.1209Z" fill="black"/>
<path d="M163.468 60.5254H147.696V74.9796H163.468V60.5254Z" fill="white"/>
<path d="M161.891 64.9914H160.284V58.5348C160.284 57.2749 159.789 56.0665 158.907 55.1756C158.025 54.2846 156.829 53.7841 155.582 53.7841C154.335 53.7841 153.139 54.2846 152.257 55.1756C151.375 56.0665 150.88 57.2749 150.88 58.5348V64.9914H149.273V58.5348C149.214 57.663 149.333 56.7883 149.622 55.9648C149.912 55.1414 150.366 54.3869 150.956 53.7481C151.546 53.1094 152.26 52.6002 153.053 52.252C153.847 51.9038 154.702 51.7241 155.567 51.7241C156.432 51.7241 157.288 51.9038 158.081 52.252C158.874 52.6002 159.588 53.1094 160.178 53.7481C160.769 54.3869 161.223 55.1414 161.512 55.9648C161.802 56.7883 161.92 57.663 161.861 58.5348L161.891 64.9914Z" fill="white"/>
<path d="M156.078 67.9993L156.589 70.4383H154.427L154.938 67.9993C154.738 67.8741 154.584 67.6865 154.499 67.465C154.415 67.2435 154.404 67.0002 154.468 66.7718C154.533 66.5434 154.669 66.3425 154.857 66.1994C155.044 66.0564 155.273 65.979 155.508 65.979C155.743 65.979 155.972 66.0564 156.159 66.1994C156.347 66.3425 156.483 66.5434 156.548 66.7718C156.612 67.0002 156.601 67.2435 156.516 67.465C156.432 67.6865 156.278 67.8741 156.078 67.9993Z" fill="#37474F"/>
<path d="M155.856 149.069H152.702V148.5H155.582V148.695H155.856V149.069ZM149.74 149.069H146.778V148.5H149.74V149.069ZM143.816 149.069H140.854V148.5H143.816V149.069ZM137.892 149.069H134.93V148.5H137.892V149.069ZM155.856 145.71H155.301V142.717H155.856V145.71ZM155.856 139.724H155.301V136.732H155.856V139.724ZM155.856 133.739H155.301V130.747H155.856V133.739ZM155.856 127.754H155.301V124.761H155.856V127.754ZM155.856 121.769H155.301V118.776H155.856V121.769ZM155.856 115.784H155.301V112.791H155.856V115.784ZM155.856 109.798H155.301V106.806H155.856V109.798ZM155.856 103.813H155.301V100.821H155.856V103.813ZM155.856 97.828H155.301V94.8354H155.856V97.828Z" fill="#414F6F"/>
<path d="M156.833 94.2216C156.833 93.9716 156.76 93.7271 156.622 93.5192C156.485 93.3113 156.29 93.1492 156.061 93.0535C155.832 92.9578 155.581 92.9328 155.338 92.9816C155.095 93.0304 154.872 93.1508 154.697 93.3276C154.522 93.5044 154.403 93.7297 154.355 93.975C154.306 94.2202 154.331 94.4745 154.426 94.7055C154.521 94.9365 154.681 95.134 154.887 95.2729C155.093 95.4119 155.334 95.486 155.582 95.486C155.914 95.486 156.232 95.3528 156.467 95.1157C156.702 94.8786 156.833 94.557 156.833 94.2216Z" fill="#414F6F"/>
<path d="M47.7831 60.8396H9.78906V11.5591H38.0013L47.7831 20.9558V60.8396Z" fill="#EBEBEB"/>
<path d="M38.001 11.5591L47.7827 20.9558H38.001V11.5591Z" fill="#DBDBDB"/>
<path d="M13.4986 21.0903L34.6245 21.0903V19.826L13.4986 19.826V21.0903Z" fill="#DBDBDB"/>
<path d="M13.4986 24.2847L34.6245 24.2847V23.0203L13.4986 23.0203V24.2847Z" fill="#DBDBDB"/>
<path d="M13.4986 27.4873L34.6245 27.4873V26.2229L13.4986 26.2229V27.4873Z" fill="#DBDBDB"/>
<path d="M13.4991 30.6816L44.4512 30.6816V29.4173L13.4991 29.4173V30.6816Z" fill="#DBDBDB"/>
<path d="M13.4991 33.876L44.4512 33.876V32.6116L13.4991 32.6116V33.876Z" fill="#DBDBDB"/>
<path d="M13.4991 37.0703L44.4512 37.0703V35.8059L13.4991 35.8059V37.0703Z" fill="#DBDBDB"/>
<path d="M13.4991 40.2656L44.4512 40.2656V39.0013L13.4991 39.0013V40.2656Z" fill="#DBDBDB"/>
<path d="M13.4991 43.4526L44.4512 43.4526V42.1883L13.4991 42.1883V43.4526Z" fill="#DBDBDB"/>
<path d="M13.4991 46.647L44.4512 46.647V45.3826L13.4991 45.3826V46.647Z" fill="#DBDBDB"/>
<path d="M13.4991 49.8416L44.4512 49.8416V48.5772L13.4991 48.5772V49.8416Z" fill="#DBDBDB"/>
<path d="M13.4991 53.0361L44.4512 53.0361V51.7718L13.4991 51.7718V53.0361Z" fill="#DBDBDB"/>
<path d="M13.4991 56.2305L44.4512 56.2305V54.9661L13.4991 54.9661V56.2305Z" fill="#DBDBDB"/>
<path d="M50.3496 65.3248C53.7469 63.894 55.3528 59.9515 53.9366 56.5191C52.5203 53.0867 48.6183 51.4641 45.221 52.895C41.8238 54.3259 40.2179 58.2684 41.6341 61.7008C43.0503 65.1332 46.9524 66.7557 50.3496 65.3248Z" fill="#263238"/>
<path d="M51.0851 57.4131H44.48V63.4731H51.0851V57.4131Z" fill="white"/>
<path d="M50.4265 59.276H49.7527V56.5752C49.7527 56.0474 49.5452 55.5412 49.1758 55.168C48.8064 54.7948 48.3054 54.5851 47.783 54.5851C47.2606 54.5851 46.7596 54.7948 46.3902 55.168C46.0208 55.5412 45.8133 56.0474 45.8133 56.5752V59.276H45.1543V56.5752C45.1543 55.8668 45.4328 55.1875 45.9286 54.6866C46.4243 54.1857 47.0967 53.9043 47.7978 53.9043C48.4989 53.9043 49.1713 54.1857 49.6671 54.6866C50.1628 55.1875 50.4413 55.8668 50.4413 56.5752L50.4265 59.276Z" fill="white"/>
<path d="M48.0644 60.5103L48.3384 61.842H47.1685L47.4424 60.5103C47.3349 60.4422 47.2523 60.3405 47.207 60.2207C47.1617 60.1009 47.1562 59.9695 47.1913 59.8463C47.2264 59.723 47.3002 59.6147 47.4016 59.5375C47.503 59.4604 47.6265 59.4187 47.7534 59.4187C47.8804 59.4187 48.0038 59.4604 48.1052 59.5375C48.2067 59.6147 48.2805 59.723 48.3156 59.8463C48.3507 59.9695 48.3452 60.1009 48.2999 60.2207C48.2546 60.3405 48.1719 60.4422 48.0644 60.5103Z" fill="#263238"/>
<path d="M73.8183 86.6051H73.2925V83.6125H73.8479L73.8183 86.6051ZM73.8183 80.6199H73.2925V77.6273H73.8479L73.8183 80.6199ZM73.8183 74.6347H73.2925V71.6421H73.8479L73.8183 74.6347ZM73.8183 68.6496H73.2925V65.657H73.8479L73.8183 68.6496ZM73.8183 62.6644H73.2925V59.6718H73.8479L73.8183 62.6644ZM73.8183 56.6792H73.2925V53.6866H73.8479L73.8183 56.6792ZM73.8183 50.694H73.2925V47.7014H73.8479L73.8183 50.694ZM73.8183 44.7088H73.2925V41.7162H73.8479L73.8183 44.7088ZM71.0711 41.5142H68.1092V40.9531H71.0711V41.5142ZM65.1473 41.5142H62.1853V40.9531H65.1473V41.5142ZM59.2234 41.5142H56.2615V40.9531H59.2234V41.5142ZM53.2996 41.5142H52.0186V40.9531H53.2996V41.5142Z" fill="#414F6F"/>
<path d="M52.0481 40.0186C51.7976 40.0172 51.5523 40.0913 51.3437 40.2315C51.1352 40.3717 50.9727 40.5716 50.8772 40.8057C50.7818 41.0397 50.7576 41.2972 50.8077 41.5452C50.8579 41.7932 50.9802 42.0204 51.1589 42.1978C51.3377 42.3751 51.5647 42.4946 51.811 42.5408C52.0573 42.5871 52.3117 42.558 52.5416 42.4574C52.7715 42.3567 52.9664 42.1891 53.1014 41.9759C53.2364 41.7626 53.3054 41.5136 53.2995 41.2605C53.2918 40.9297 53.1568 40.6149 52.9232 40.3831C52.6895 40.1512 52.3756 40.0204 52.0481 40.0186Z" fill="#414F6F"/>
<path d="M95.107 253.024H93.3669V252.492H95.107V253.024ZM90.405 253.024H87.443V252.492H90.405V253.024ZM84.4811 253.024H81.5192V252.492H84.4811V253.024ZM78.5573 253.024H75.5954V252.492H78.5573V253.024ZM73.8182 251.827H73.2925V248.834H73.8478L73.8182 251.827ZM73.8182 245.841H73.2925V242.849H73.8478L73.8182 245.841ZM73.8182 239.856H73.2925V236.864H73.8478L73.8182 239.856ZM73.8182 233.871H73.2925V230.878H73.8478L73.8182 233.871ZM73.8182 227.886H73.2925V224.893H73.8478L73.8182 227.886ZM73.8182 221.901H73.2925V218.908H73.8478L73.8182 221.901ZM73.8182 215.915H73.2925V212.923H73.8478L73.8182 215.915Z" fill="#414F6F"/>
<path d="M95.0405 254.011C95.7316 254.011 96.2919 253.445 96.2919 252.747C96.2919 252.048 95.7316 251.482 95.0405 251.482C94.3493 251.482 93.7891 252.048 93.7891 252.747C93.7891 253.445 94.3493 254.011 95.0405 254.011Z" fill="#414F6F"/>
<path d="M146.733 244.54H99.4165V273.389H146.733V244.54Z" fill="#455A64"/>
<path d="M116.359 248.168H103.134V265.256H116.359V248.168Z" fill="white"/>
<path d="M109.746 258.171C111.476 258.171 112.879 256.754 112.879 255.006C112.879 253.258 111.476 251.841 109.746 251.841C108.017 251.841 106.614 253.258 106.614 255.006C106.614 256.754 108.017 258.171 109.746 258.171Z" fill="#455A64"/>
<path d="M116.359 265.256H103.134C103.134 265.256 103.497 262.069 104.141 261.118C104.785 260.168 106.488 259.098 109.746 259.098C113.004 259.098 114.707 260.168 115.352 261.118C115.996 262.069 116.359 265.256 116.359 265.256Z" fill="#455A64"/>
<path d="M141.55 248.168H119.78V248.999H141.55V248.168Z" fill="white"/>
<path d="M141.55 256.293H119.78V257.123H141.55V256.293Z" fill="white"/>
<path d="M141.55 258.687H119.78V259.517H141.55V258.687Z" fill="white"/>
<path d="M141.55 261.074H119.78V261.904H141.55V261.074Z" fill="white"/>
<path d="M141.55 263.468H119.78V264.298H141.55V263.468Z" fill="white"/>
<path d="M141.55 265.854H119.78V266.685H141.55V265.854Z" fill="white"/>
<path d="M137.411 250.562H119.78V251.392H137.411V250.562Z" fill="white"/>
<path d="M149.297 279.61C152.695 278.179 154.301 274.237 152.884 270.804C151.468 267.372 147.566 265.749 144.169 267.18C140.772 268.611 139.166 272.554 140.582 275.986C141.998 279.418 145.9 281.041 149.297 279.61Z" fill="#263238"/>
<path d="M150.036 271.69H143.431V277.75H150.036V271.69Z" fill="white"/>
<path d="M149.377 273.553H148.703V270.852C148.703 270.324 148.496 269.818 148.126 269.445C147.757 269.072 147.256 268.862 146.733 268.862C146.211 268.862 145.71 269.072 145.341 269.445C144.971 269.818 144.764 270.324 144.764 270.852V273.553H144.09V270.852C144.09 270.144 144.368 269.464 144.864 268.963C145.36 268.463 146.032 268.181 146.733 268.181C147.434 268.181 148.107 268.463 148.603 268.963C149.098 269.464 149.377 270.144 149.377 270.852V273.553Z" fill="white"/>
<path d="M147.014 274.787L147.288 276.119H146.111L146.392 274.787C146.306 274.733 146.235 274.656 146.187 274.566C146.139 274.475 146.116 274.373 146.118 274.271C146.121 274.168 146.151 274.068 146.203 273.98C146.256 273.892 146.331 273.82 146.42 273.77C146.509 273.72 146.609 273.695 146.711 273.696C146.813 273.697 146.912 273.725 147 273.777C147.088 273.83 147.16 273.904 147.211 273.993C147.261 274.082 147.288 274.183 147.288 274.286C147.288 274.386 147.263 274.485 147.215 274.573C147.167 274.66 147.098 274.734 147.014 274.787Z" fill="#263238"/>
<path d="M310.972 299.626L272.104 299.806L233.229 299.873L155.486 300L77.7429 299.873L38.8752 299.806L0 299.626L38.8752 299.439L77.7429 299.379L155.486 299.252L233.229 299.379L272.104 299.446L310.972 299.626Z" fill="#263238"/>
</svg>
