<svg width="98" height="100" viewBox="0 0 98 100" fill="none" xmlns="http://www.w3.org/2000/svg">
<rect width="96" height="96" rx="48" fill="#C2C3CB"/>
<path opacity="0.4" d="M48 14.6667C39.2667 14.6667 32.1667 21.7667 32.1667 30.5001C32.1667 39.0667 38.8667 46.0001 47.6 46.3001C47.8667 46.2667 48.1333 46.2667 48.3333 46.3001C48.4 46.3001 48.4333 46.3001 48.5 46.3001C48.5333 46.3001 48.5333 46.3001 48.5667 46.3001C57.1 46.0001 63.8 39.0667 63.8333 30.5001C63.8333 21.7667 56.7333 14.6667 48 14.6667Z" fill="#414F6F"/>
<path d="M64.9333 55.1666C55.6333 48.9666 40.4667 48.9666 31.1 55.1666C26.8667 57.9999 24.5333 61.8333 24.5333 65.9333C24.5333 70.0333 26.8667 73.8333 31.0667 76.6333C35.7333 79.7666 41.8667 81.3333 48 81.3333C54.1333 81.3333 60.2667 79.7666 64.9333 76.6333C69.1333 73.7999 71.4667 69.9999 71.4667 65.8666C71.4333 61.7666 69.1333 57.9666 64.9333 55.1666Z" fill="#414F6F"/>
<rect x="66" y="68" width="32" height="32" rx="16" fill="white"/>
<path opacity="0.4" d="M91 94H73C72.59 94 72.25 93.66 72.25 93.25C72.25 92.84 72.59 92.5 73 92.5H91C91.41 92.5 91.75 92.84 91.75 93.25C91.75 93.66 91.41 94 91 94Z" fill="#414F6F"/>
<path opacity="0.4" d="M89.02 75.4799C87.08 73.5399 85.18 73.4899 83.19 75.4799L81.98 76.6899C81.88 76.7899 81.84 76.9499 81.88 77.0899C82.64 79.7399 84.76 81.8599 87.41 82.6199C87.45 82.6299 87.49 82.6399 87.53 82.6399C87.64 82.6399 87.74 82.5999 87.82 82.5199L89.02 81.3099C90.01 80.3299 90.49 79.3799 90.49 78.4199C90.5 77.4299 90.02 76.4699 89.02 75.4799Z" fill="#414F6F"/>
<path d="M85.61 83.53C85.32 83.39 85.04 83.25 84.77 83.09C84.55 82.96 84.34 82.82 84.13 82.67C83.96 82.56 83.76 82.4 83.57 82.24C83.55 82.23 83.48 82.17 83.4 82.09C83.07 81.81 82.7 81.45 82.37 81.05C82.34 81.03 82.29 80.96 82.22 80.87C82.12 80.75 81.95 80.55 81.8 80.32C81.68 80.17 81.54 79.95 81.41 79.73C81.25 79.46 81.11 79.19 80.97 78.91C80.83 78.61 80.72 78.32 80.62 78.05L74.34 84.33C74.21 84.46 74.09 84.71 74.06 84.88L73.52 88.71C73.42 89.39 73.61 90.03 74.03 90.46C74.39 90.81 74.89 91 75.43 91C75.55 91 75.67 90.99 75.79 90.97L79.63 90.43C79.81 90.4 80.06 90.28 80.18 90.15L86.46 83.87C86.18 83.77 85.91 83.66 85.61 83.53Z" fill="#414F6F"/>
</svg>
