<?xml version="1.0" encoding="UTF-8"?>
<svg xmlns="http://www.w3.org/2000/svg" version="1.1" viewBox="0 0 1080 1080">
  <defs>
    <style>
      .cls-1 {
        fill: #fff;
      }

      .cls-2 {
        fill: #fbdc0b;
      }

      .cls-3 {
        fill: #fcdd08;
      }
    </style>
  </defs>
  <!-- Generator: Adobe Illustrator 28.6.0, SVG Export Plug-In . SVG Version: 1.2.0 Build 709)  -->
  <g>
    <g id="Layer_1">
      <g>
        <path class="cls-1" d="M296.8,597.2c9.2-.7,18.5-.5,27.7-.3,2.7,0,3.9-.3,3.8-3.3v-8c0-1.5-1-2.7-2.5-3h0c-7.7-1.5-30.8-4.7-49,4.6-20.1,10.3-20.8,36.1-11.4,52.5,1.2,2-.3,4.5-2.6,4.5h-10.1c-1.6,0-3,1.3-3,3v9.5c0,1.6,1.3,3,3,3h72.3c1.6,0,3-1.3,3-3v-9.5c0-1.6-1.3-3-3-3h-27.3c-9.2,0-16.2-6-19.1-14.2-3-8.6-3.1-15.6,1-23.3,3.3-6.3,10.2-9,17.1-9.5Z"/>
        <path class="cls-1" d="M515.7,331c-.2,1.9-.4,3.9-.6,5.8,0,0,0,0,.3-.3.7-1,1.4-1.7,1.8-2.6,4-9,11-12.2,20.5-10.6.6,0,1.2.2,1.8.2-10.6-4.8-15-12.7-12.5-24.7-4.9,11.2-12.7,15.6-24.4,12.8,1.4,1.2,2.7,2.2,4.2,2.9,6.8,3.4,9.8,8.9,8.9,16.5Z"/>
        <path class="cls-1" d="M769.7,690.2c-.6-2.5-3-4-5.5-3.5l-37.6,8.2h.1c-.4.2-.6.5-.5.9l1.6,7.2c0,.4.4.6.8.5l41.3-9c.4,0,.6-.4.5-.8l-.8-3.5Z"/>
        <path class="cls-1" d="M557.6,480.8c0,.4.4.6.8.5l41.3-9c.4,0,.6-.4.5-.8l-.8-3.5c-.6-2.5-3-4-5.5-3.5l-37.6,8.2h.1c-.4.2-.6.5-.5.9l1.6,7.2Z"/>
        <circle class="cls-1" cx="585.2" cy="504" r="10.6" transform="translate(-104.4 851.8) rotate(-67.5)"/>
        <circle class="cls-1" cx="553.8" cy="504" r="10.6"/>
        <path id="_x3C_Path_x3E_" class="cls-1" d="M794.9,564.6c0-10.7,0-35.7,0-35.7h-22.3v20.1h5.8s.2,38.6.2,56.1c-.1,23.4-16.8,40-40,40-39.2,0-120.2,0-121.3-.2.7-4.4,1.8-8.5,1.9-12.6.5-15.5,1-30.6,1-46.7,0-25.1-10-57.2-61.9-48.9-23.6,3.8-42,23.8-39.4,54.3,1.3,15.4,9.6,40,36,42.3,14.2,1.3,45.6,0,47,0,0,8.3-3.2,11.8-11,11.8-12.3,0-183.3-.1-193.8-.1s-36-9.4-35.9-30.4c0-20.1-3.5-57.4,1.4-78.5,3.4-10.5,9.5-19.6,17.3-27.5,16.7-16.7,37.5-23.4,60.4-25.3,17-1.4,33.7-4,49.7-10.2,16-6.2,29.8-15.1,38.5-30.5,2.2-3.8,3.7-8,5.5-12-.3-.2-.6-.4-1-.5-7.5,8.2-15.9,15-26,19.8-18.2,8.6-37.5,10.9-57.3,10.7-13.8-.2-27.4.8-40.8,4.2-18.6,4.8-35.2,13.1-47.6,28.3-15.3,18.7-19.1,40.7-18.2,64,.3,8.9,0,57,3.3,68.4,3.9,13.2,12.9,25.8,34.4,32.1,9.8,2.9,20.8,2.2,35.8,2.2s304.9-.1,323.5-.3c14.8-.1,27.5-6.1,38.3-15.7,12.2-10.8,16.3-25.1,16.4-40.9,0-12.7,0-25.4,0-38.1ZM602.2,619.9c-14.4,0-30.2-.1-44.6,0-3.5,0-6.1-1.1-8.7-3.1-12-9.1-17-21.5-14.1-35.9,2.7-13.3,10.1-24,24.2-28.7,21.7-6.2,39.9,6.2,43.3,21.3,1.1,4.8,1.3,46.4,0,46.4Z"/>
        <path class="cls-2" d="M540.4,382.3c-4.3,15.2-13.9,26.8-27,35.9-21.1,14.4-44.7,20.1-69.5,21.5-27.1,1.5-52.9,6.8-76,21.9-2.5,1.6-4.8,3.3-8.2,5.6,4-10.4,9.6-18.5,16.8-25.5,13.3-13,29.7-20,47.6-23.9,16.9-3.7,34-6,50.7-10.4,18.8-5,36-13.7,49.3-28.6,8.1-9.1,13.4-19.3,12.5-32.1-.2-2.6.5-5.3.6-6.8,7,12.7,7.4,27.4,3.2,42.2v.2Z"/>
        <path class="cls-3" d="M469.7,373.2c-.4,9.6-5.5,16.4-14.5,20.2-12.1,5.1-25.8-.9-30.4-13.2-4.6-12.3,1.9-25.9,14-30.1,5.9-2,11.6-1.6,17.6.9,9.2,4.8,13.8,12.3,13.3,22.2Z"/>
      </g>
    </g>
  </g>
</svg>