<svg width="152" height="113" viewBox="0 0 152 113" fill="none" xmlns="http://www.w3.org/2000/svg">
<path d="M13.4447 82.8889C16.0002 82.6945 18.5835 82.75 21.1391 82.8056C21.8891 82.8056 22.2224 82.7222 22.1947 81.8889V79.6667C22.1947 79.25 21.9169 78.9167 21.5002 78.8333C19.3613 78.4167 12.9447 77.5278 7.8891 80.1111C2.30577 82.9722 2.11133 90.1389 4.72244 94.6945C5.05577 95.25 4.6391 95.9445 4.00021 95.9445H1.19466C0.750217 95.9445 0.361328 96.3056 0.361328 96.7778V99.4167C0.361328 99.8611 0.722439 100.25 1.19466 100.25H21.278C21.7224 100.25 22.1113 99.8889 22.1113 99.4167V96.7778C22.1113 96.3333 21.7502 95.9445 21.278 95.9445H13.6947C11.1391 95.9445 9.19466 94.2778 8.38911 92C7.55577 89.6111 7.528 87.6667 8.66689 85.5278C9.58355 83.7778 11.5002 83.0278 13.4169 82.8889H13.4447Z" fill="white"/>
<path d="M74.2502 8.94445C74.1947 9.47223 74.1391 10.0278 74.0835 10.5556C74.0835 10.5556 74.0836 10.5556 74.1669 10.4722C74.3613 10.1944 74.5558 10 74.6669 9.75C75.778 7.25 77.7225 6.36111 80.3613 6.80556C80.528 6.80556 80.6947 6.86111 80.8613 6.86111C77.9169 5.52778 76.6947 3.33333 77.3891 0C76.028 3.11111 73.8613 4.33334 70.6113 3.55556C71.0002 3.88889 71.3613 4.16667 71.778 4.36111C73.6669 5.30556 74.5002 6.83334 74.2502 8.94445Z" fill="white"/>
<path d="M144.806 108.722C144.639 108.028 143.972 107.611 143.278 107.75L132.834 110.028H132.861C132.75 110.083 132.695 110.167 132.722 110.278L133.167 112.278C133.167 112.389 133.278 112.444 133.389 112.417L144.861 109.917C144.972 109.917 145.028 109.806 145 109.694L144.778 108.722H144.806Z" fill="white"/>
<path d="M85.8891 50.5556C85.8891 50.6667 86.0002 50.7222 86.1113 50.6944L97.5835 48.1944C97.6947 48.1944 97.7502 48.0833 97.7224 47.9722L97.5002 47C97.3335 46.3056 96.6669 45.8889 95.9724 46.0278L85.528 48.3056H85.5558C85.4447 48.3611 85.3891 48.4445 85.4169 48.5556L85.8613 50.5556H85.8891Z" fill="white"/>
<path d="M96.271 58.1318C96.8933 56.6294 96.1798 54.907 94.6775 54.2847C93.1751 53.6624 91.4527 54.3759 90.8304 55.8783C90.208 57.3806 90.9215 59.1031 92.4239 59.7254C93.9263 60.3477 95.6487 59.6342 96.271 58.1318Z" fill="white"/>
<path d="M84.8335 59.9444C86.4597 59.9444 87.778 58.6262 87.778 57C87.778 55.3738 86.4597 54.0556 84.8335 54.0556C83.2074 54.0556 81.8891 55.3738 81.8891 57C81.8891 58.6262 83.2074 59.9444 84.8335 59.9444Z" fill="white"/>
<path d="M151.806 73.8333C151.806 70.8611 151.806 63.9167 151.806 63.9167H145.611V69.5H147.222C147.222 69.5 147.278 80.2222 147.278 85.0833C147.25 91.5833 142.611 96.1944 136.167 96.1944C125.278 96.1944 102.778 96.1945 102.472 96.1389C102.667 94.9167 102.972 93.7778 103 92.6389C103.139 88.3333 103.278 84.1389 103.278 79.6667C103.278 72.6944 100.5 63.7778 86.0835 66.0833C79.528 67.1389 74.4169 72.6945 75.1391 81.1667C75.5002 85.4445 77.8058 92.2778 85.1391 92.9167C89.0836 93.2778 97.8058 92.9167 98.1947 92.9167C98.1947 95.2222 97.3058 96.1944 95.1391 96.1944C91.7225 96.1944 44.2224 96.1667 41.3058 96.1667C38.3891 96.1667 31.3058 93.5556 31.3336 87.7222C31.3336 82.1389 30.3613 71.7778 31.7224 65.9167C32.6669 63 34.3613 60.4722 36.528 58.2778C41.1669 53.6389 46.9447 51.7778 53.3058 51.25C58.028 50.8611 62.6669 50.1389 67.1113 48.4167C71.5558 46.6945 75.3891 44.2222 77.8058 39.9445C78.4169 38.8889 78.8335 37.7222 79.3335 36.6111C79.2502 36.5556 79.1669 36.5 79.0558 36.4722C76.9724 38.75 74.6391 40.6389 71.8335 41.9722C66.778 44.3611 61.4169 45 55.9169 44.9445C52.0836 44.8889 48.3058 45.1667 44.5835 46.1111C39.4169 47.4444 34.8058 49.75 31.3613 53.9722C27.1113 59.1667 26.0558 65.2778 26.3058 71.75C26.3891 74.2222 26.3058 87.5833 27.2224 90.75C28.3058 94.4167 30.8058 97.9167 36.778 99.6667C39.5002 100.472 42.5558 100.278 46.7224 100.278C50.8891 100.278 131.417 100.25 136.584 100.194C140.695 100.167 144.222 98.5 147.222 95.8333C150.611 92.8333 151.75 88.8611 151.778 84.4722C151.778 80.9445 151.778 77.4167 151.778 73.8889L151.806 73.8333ZM98.278 89.1945C94.278 89.1945 89.8891 89.1667 85.8891 89.1945C84.9169 89.1945 84.1947 88.8889 83.4725 88.3333C80.1391 85.8056 78.7502 82.3611 79.5558 78.3611C80.3058 74.6667 82.3613 71.6945 86.278 70.3889C92.3058 68.6667 97.3613 72.1111 98.3058 76.3056C98.6113 77.6389 98.6669 89.1945 98.3058 89.1945H98.278Z" fill="white"/>
<path d="M81.1113 23.1944C79.9169 27.4167 77.2502 30.6389 73.6113 33.1667C67.7502 37.1667 61.1947 38.75 54.3058 39.1389C46.778 39.5556 39.6113 41.0278 33.1947 45.2222C32.5002 45.6667 31.8613 46.1389 30.9169 46.7778C32.028 43.8889 33.5835 41.6389 35.5835 39.6945C39.278 36.0833 43.8336 34.1389 48.8058 33.0556C53.5002 32.0278 58.2502 31.3889 62.8891 30.1667C68.1113 28.7778 72.8891 26.3611 76.5835 22.2222C78.8335 19.6944 80.3058 16.8611 80.0558 13.3056C80.0002 12.5833 80.1947 11.8333 80.2224 11.4167C82.1669 14.9444 82.278 19.0278 81.1113 23.1389V23.1944Z" fill="#FBDC0B"/>
<path d="M61.4724 20.6667C61.3613 23.3333 59.9447 25.2222 57.4447 26.2778C54.0836 27.6944 50.278 26.0278 49.0002 22.6111C47.7224 19.1944 49.528 15.4167 52.8891 14.25C54.528 13.6944 56.1113 13.8056 57.778 14.5C60.3335 15.8333 61.6113 17.9167 61.4724 20.6667Z" fill="#FCDD08"/>
</svg>
