<svg width="37" height="43" viewBox="0 0 37 43" fill="none" xmlns="http://www.w3.org/2000/svg">
<path d="M29.9753 24.4967C30.6541 24.4967 31.3129 24.5765 31.9718 24.6763V18.5071C31.9718 17.4481 31.5511 16.4324 30.8022 15.6836C30.0534 14.9347 29.0378 14.514 27.9787 14.514H25.9822V10.521C25.9822 5.01055 21.51 0.53833 15.9996 0.53833C10.4891 0.53833 6.01693 5.01055 6.01693 10.521V14.514H4.0204C2.96137 14.514 1.94573 14.9347 1.19688 15.6836C0.448039 16.4324 0.0273438 17.4481 0.0273438 18.5071V38.4724C0.0273438 40.6885 1.80425 42.4654 4.0204 42.4654H19.6133C18.5951 40.7085 17.9961 38.672 17.9961 36.4758C17.9961 29.8673 23.3668 24.4967 29.9753 24.4967ZM10.01 10.521C10.01 7.20673 12.6853 4.53139 15.9996 4.53139C19.3138 4.53139 21.9891 7.20673 21.9891 10.521V14.514H10.01V10.521ZM15.9996 32.4828C15.2098 32.4828 14.4378 32.2486 13.7811 31.8098C13.1245 31.3711 12.6127 30.7474 12.3105 30.0178C12.0082 29.2882 11.9292 28.4853 12.0832 27.7107C12.2373 26.9361 12.6176 26.2246 13.1761 25.6662C13.7345 25.1078 14.446 24.7275 15.2206 24.5734C15.9951 24.4193 16.798 24.4984 17.5276 24.8006C18.2573 25.1028 18.8809 25.6146 19.3197 26.2713C19.7584 26.9279 19.9926 27.7 19.9926 28.4897C19.9926 30.7059 18.2157 32.4828 15.9996 32.4828ZM36.9631 32.9819L27.4796 42.4654L21.9891 36.4758L24.3051 34.1599L27.4796 37.3343L34.6471 30.1668L36.9631 32.9819Z" fill="white"/>
</svg>
