<svg width="55" height="48" viewBox="0 0 55 48" fill="none" xmlns="http://www.w3.org/2000/svg">
<path d="M43.5 32H38.1666V37.3333H43.5M43.5 21.3333H38.1666V26.6667H43.5M48.8333 42.6667H27.5V37.3333H32.8333V32H27.5V26.6667H32.8333V21.3333H27.5V16H48.8333M22.1666 10.6667H16.8333V5.33333H22.1666M22.1666 21.3333H16.8333V16H22.1666M22.1666 32H16.8333V26.6667H22.1666M22.1666 42.6667H16.8333V37.3333H22.1666M11.5 10.6667H6.16665V5.33333H11.5M11.5 21.3333H6.16665V16H11.5M11.5 32H6.16665V26.6667H11.5M11.5 42.6667H6.16665V37.3333H11.5M27.5 10.6667V0H0.833313V48H54.1666V10.6667H27.5Z" fill="#414F6F"/>
</svg>
