<svg width="38" height="43" viewBox="0 0 38 43" fill="none" xmlns="http://www.w3.org/2000/svg">
<path d="M30.4753 24.4967C31.1541 24.4967 31.8129 24.5765 32.4718 24.6763V18.5071C32.4718 17.4481 32.0511 16.4324 31.3022 15.6836C30.5534 14.9347 29.5378 14.514 28.4787 14.514H26.4822V10.521C26.4822 5.01055 22.01 0.53833 16.4996 0.53833C10.9891 0.53833 6.51693 5.01055 6.51693 10.521V14.514H4.5204C3.46138 14.514 2.44573 14.9347 1.69688 15.6836C0.948039 16.4324 0.527344 17.4481 0.527344 18.5071V38.4724C0.527344 40.6885 2.30425 42.4654 4.5204 42.4654H20.1133C19.0951 40.7085 18.4961 38.672 18.4961 36.4758C18.4961 29.8673 23.8668 24.4967 30.4753 24.4967ZM10.51 10.521C10.51 7.20673 13.1853 4.53139 16.4996 4.53139C19.8138 4.53139 22.4891 7.20673 22.4891 10.521V14.514H10.51V10.521ZM16.4996 32.4828C15.7098 32.4828 14.9378 32.2486 14.2811 31.8098C13.6245 31.3711 13.1127 30.7474 12.8105 30.0178C12.5082 29.2882 12.4292 28.4853 12.5832 27.7107C12.7373 26.9361 13.1176 26.2246 13.6761 25.6662C14.2345 25.1078 14.946 24.7275 15.7206 24.5734C16.4951 24.4193 17.298 24.4984 18.0276 24.8006C18.7573 25.1028 19.3809 25.6146 19.8197 26.2713C20.2584 26.9279 20.4926 27.7 20.4926 28.4897C20.4926 30.7059 18.7157 32.4828 16.4996 32.4828ZM37.4631 32.9819L27.9796 42.4654L22.4891 36.4758L24.8051 34.1599L27.9796 37.3343L35.1471 30.1668L37.4631 32.9819Z" fill="white"/>
</svg>
