<svg width="52" height="51" viewBox="0 0 52 51" fill="none" xmlns="http://www.w3.org/2000/svg">
<path d="M50.6325 8.1024L26.6325 0.102404C26.2219 -0.0344602 25.7781 -0.0344602 25.3675 0.102404L1.3675 8.1024C0.969262 8.23516 0.622893 8.48986 0.377459 8.83041C0.132024 9.17097 -3.11057e-05 9.58012 5.4959e-09 9.9999V29.9999C5.4959e-09 30.5303 0.210714 31.039 0.585786 31.4141C0.960859 31.7892 1.46957 31.9999 2 31.9999C2.53043 31.9999 3.03914 31.7892 3.41421 31.4141C3.78929 31.039 4 30.5303 4 29.9999V12.7749L12.3975 15.5724C10.1664 19.1769 9.45691 23.5195 10.4248 27.6467C11.3928 31.7738 13.959 35.3482 17.56 37.5849C13.06 39.3499 9.17 42.5424 6.325 46.9074C6.17704 47.1273 6.07427 47.3744 6.02265 47.6344C5.97104 47.8944 5.97162 48.162 6.02435 48.4218C6.07709 48.6815 6.18093 48.9282 6.32984 49.1475C6.47875 49.3668 6.66975 49.5542 6.89176 49.699C7.11376 49.8438 7.36233 49.9431 7.62302 49.991C7.88371 50.0388 8.15132 50.0344 8.41029 49.978C8.66926 49.9215 8.91443 49.8142 9.13155 49.6622C9.34866 49.5101 9.53339 49.3165 9.675 49.0924C13.4425 43.3124 19.3925 39.9999 26 39.9999C32.6075 39.9999 38.5575 43.3124 42.325 49.0924C42.6183 49.5284 43.0715 49.8314 43.5864 49.936C44.1014 50.0405 44.6368 49.9382 45.077 49.6511C45.5171 49.364 45.8266 48.9153 45.9385 48.4019C46.0504 47.8884 45.9557 47.3516 45.675 46.9074C42.83 42.5424 38.925 39.3499 34.44 37.5849C38.0376 35.3483 40.6013 31.7762 41.5691 27.6521C42.5369 23.528 41.8296 19.1884 39.6025 15.5849L50.6325 11.9099C51.0308 11.7772 51.3773 11.5226 51.6228 11.182C51.8683 10.8414 52.0004 10.4322 52.0004 10.0124C52.0004 9.59257 51.8683 9.18338 51.6228 8.84281C51.3773 8.50225 51.0308 8.24758 50.6325 8.1149V8.1024ZM38 23.9999C38.0005 25.897 37.5513 27.7673 36.689 29.4572C35.8268 31.147 34.5762 32.6084 33.0398 33.7214C31.5034 34.8343 29.7251 35.5672 27.8506 35.8597C25.9762 36.1523 24.0591 35.9963 22.2566 35.4045C20.4542 34.8127 18.8177 33.802 17.4815 32.4552C16.1453 31.1085 15.1474 29.4641 14.5698 27.6571C13.9921 25.85 13.8512 23.9317 14.1585 22.0596C14.4657 20.1876 15.2125 18.415 16.3375 16.8874L25.3675 19.8874C25.7781 20.0243 26.2219 20.0243 26.6325 19.8874L35.6625 16.8874C37.182 18.9474 38.0012 21.4402 38 23.9999Z" fill="#414F6F"/>
</svg>
